<svg width="20" height="20" viewBox="0 0 20 20" fill="none" xmlns="http://www.w3.org/2000/svg">
<path d="M10.0002 19.1666C8.73211 19.1666 7.54044 18.9258 6.42516 18.4443C5.30989 17.9633 4.33975 17.3103 3.51475 16.4853C2.68975 15.6603 2.03677 14.6902 1.55583 13.5749C1.07427 12.4596 0.833496 11.268 0.833496 9.99992C0.833496 8.73186 1.07427 7.5402 1.55583 6.42492C2.03677 5.30964 2.68975 4.3395 3.51475 3.5145C4.33975 2.6895 5.30989 2.03622 6.42516 1.55467C7.54044 1.07372 8.73211 0.833252 10.0002 0.833252C11.2682 0.833252 12.4599 1.07372 13.5752 1.55467C14.6904 2.03622 15.6606 2.6895 16.4856 3.5145C17.3106 4.3395 17.9636 5.30964 18.4445 6.42492C18.9261 7.5402 19.1668 8.73186 19.1668 9.99992C19.1668 11.268 18.9261 12.4596 18.4445 13.5749C17.9636 14.6902 17.3106 15.6603 16.4856 16.4853C15.6606 17.3103 14.6904 17.9633 13.5752 18.4443C12.4599 18.9258 11.2682 19.1666 10.0002 19.1666ZM9.0835 10.9166H10.9168V5.41658H9.0835V10.9166ZM10.0002 14.5833C10.2599 14.5833 10.4777 14.4953 10.6537 14.3193C10.8291 14.1439 10.9168 13.9263 10.9168 13.6666C10.9168 13.4069 10.8291 13.189 10.6537 13.013C10.4777 12.8376 10.2599 12.7499 10.0002 12.7499C9.74044 12.7499 9.52288 12.8376 9.3475 13.013C9.1715 13.189 9.0835 13.4069 9.0835 13.6666C9.0835 13.9263 9.1715 14.1439 9.3475 14.3193C9.52288 14.4953 9.74044 14.5833 10.0002 14.5833Z" fill="#F93C00"/>
</svg>
