<svg width="14" height="15" viewBox="0 0 14 15" fill="none" xmlns="http://www.w3.org/2000/svg">
<path d="M7 14.567C6.03167 14.567 5.12167 14.3757 4.27 13.9931C3.41833 13.6109 2.6775 13.0921 2.0475 12.4366C1.4175 11.7811 0.918867 11.0102 0.5516 10.1241C0.183867 9.23792 0 8.29106 0 7.28351C0 6.27596 0.183867 5.3291 0.5516 4.44294C0.918867 3.55678 1.4175 2.78594 2.0475 2.13043C2.6775 1.47491 3.41833 0.955839 4.27 0.573212C5.12167 0.191071 6.03167 0 7 0C7.96833 0 8.87833 0.191071 9.73 0.573212C10.5817 0.955839 11.3225 1.47491 11.9525 2.13043C12.5825 2.78594 13.0811 3.55678 13.4484 4.44294C13.8161 5.3291 14 6.27596 14 7.28351C14 8.29106 13.8161 9.23792 13.4484 10.1241C13.0811 11.0102 12.5825 11.7811 11.9525 12.4366C11.3225 13.0921 10.5817 13.6109 9.73 13.9931C8.87833 14.3757 7.96833 14.567 7 14.567ZM6.02 10.6339L10.955 5.49905L9.975 4.47936L6.02 8.59454L4.025 6.51874L3.045 7.53843L6.02 10.6339Z" fill="#51E28B"/>
</svg>
