<svg width="115" height="43" viewBox="0 0 115 43" fill="none" xmlns="http://www.w3.org/2000/svg">
<rect x="109" y="2" width="38" height="107" rx="4" transform="rotate(90 109 2)" fill="white"/>
<path d="M-1.64498e-05 33.2583L-1.55722e-05 8.75275C-1.53993e-05 3.9244 4.32722 -4.41105e-06 9.63902 -4.12764e-06L101.481 -5.14927e-07C106.805 -2.30874e-07 111.132 3.92441 111.132 8.75276L111.132 33.2583C111.132 38.0866 106.805 42.011 101.481 42.011L9.65117 42.011C4.32722 42 -1.66223e-05 38.0756 -1.64498e-05 33.2583ZM108.653 8.75276C108.653 5.15906 105.432 2.2378 101.469 2.23779L9.63902 2.23779C5.67644 2.23779 2.45533 5.15905 2.45533 8.75275L2.45533 33.2583C2.45533 36.852 5.67644 39.7732 9.63901 39.7732L101.481 39.7732C105.444 39.7732 108.665 36.852 108.665 33.2583L108.665 8.75276L108.653 8.75276Z" fill="#484D4D"/>
<rect x="111" y="13" width="4" height="16" fill="#484D4D"/>
<rect x="88" y="4" width="34" height="65" transform="rotate(90 88 4)" fill="#55BA44"/>
<path d="M9 4C6.79086 4 5 5.79086 5 8L5 34C5 36.2091 6.79086 38 9 38L20 38L20 4L9 4Z" fill="#D5D5D5"/>
<path d="M102 4C104.209 4 106 5.79086 106 8L106 34C106 36.2091 104.209 38 102 38L91 38L91 4L102 4Z" fill="#D5D5D5"/>
<path d="M28.63 25.86L35.546 25.86L35.546 24.236L31.416 24.236C33.04 22.864 35.322 21.016 35.322 18.65C35.322 16.872 34.216 15.57 32.018 15.57C30.184 15.57 28.686 16.648 28.616 18.986L30.52 18.986C30.534 17.908 31.052 17.236 31.99 17.236C32.956 17.236 33.362 17.852 33.362 18.762C33.362 20.638 30.94 22.444 28.63 24.404L28.63 25.86ZM36.7811 20.764C36.7811 23.746 37.6771 25.972 40.5611 25.972C43.4451 25.972 44.3411 23.746 44.3411 20.764C44.3411 17.81 43.4451 15.598 40.5611 15.598C37.6771 15.598 36.7811 17.81 36.7811 20.764ZM42.4091 20.764C42.4091 22.584 42.2131 24.152 40.5611 24.152C38.9091 24.152 38.7131 22.584 38.7131 20.764C38.7131 19.014 38.9091 17.418 40.5611 17.418C42.2131 17.418 42.4091 19.014 42.4091 20.764ZM46.0838 21.828L52.0198 21.828L52.0198 20.176L46.0838 20.176L46.0838 21.828ZM55.702 20.596C54.694 21.016 54.064 21.898 54.064 23.102C54.064 25.048 55.66 26.224 57.746 26.224C59.846 26.224 61.442 25.048 61.442 23.102C61.442 21.912 60.812 21.03 59.804 20.596C60.602 20.19 61.19 19.42 61.19 18.342C61.19 16.886 60.07 15.598 57.746 15.598C55.422 15.598 54.302 16.872 54.302 18.342C54.302 19.448 54.862 20.162 55.702 20.596ZM57.746 20.022C56.864 20.022 56.22 19.476 56.22 18.636C56.22 17.684 56.836 17.18 57.746 17.18C58.684 17.18 59.286 17.698 59.286 18.622C59.286 19.462 58.642 20.022 57.746 20.022ZM57.746 21.45C58.796 21.45 59.524 22.01 59.524 23.018C59.524 23.914 58.866 24.6 57.746 24.6C56.626 24.6 55.954 23.928 55.954 23.018C55.954 21.982 56.724 21.45 57.746 21.45ZM62.99 20.764C62.99 23.746 63.886 25.972 66.77 25.972C69.654 25.972 70.55 23.746 70.55 20.764C70.55 17.81 69.654 15.598 66.77 15.598C63.886 15.598 62.99 17.81 62.99 20.764ZM68.618 20.764C68.618 22.584 68.422 24.152 66.77 24.152C65.118 24.152 64.922 22.584 64.922 20.764C64.922 19.014 65.118 17.418 66.77 17.418C68.422 17.418 68.618 19.014 68.618 20.764ZM71.8168 18.3C71.8168 19.77 72.7688 20.582 74.0428 20.582C75.3168 20.582 76.2688 19.77 76.2688 18.3C76.2688 16.844 75.3168 16.032 74.0428 16.032C72.7688 16.032 71.8168 16.844 71.8168 18.3ZM74.0288 17.208C74.5188 17.208 74.8268 17.53 74.8268 18.3C74.8268 19.07 74.5188 19.406 74.0288 19.406C73.5528 19.406 73.2588 19.07 73.2588 18.3C73.2588 17.53 73.5528 17.208 74.0288 17.208ZM73.3988 26L75.3028 26L80.8048 16.2L78.8868 16.2L73.3988 26ZM77.9628 23.886C77.9628 25.37 78.9148 26.168 80.1888 26.168C81.4488 26.168 82.3868 25.37 82.3868 23.886C82.3868 22.416 81.4488 21.618 80.1888 21.618C78.9148 21.618 77.9628 22.416 77.9628 23.886ZM80.1748 22.794C80.6508 22.794 80.9588 23.116 80.9588 23.886C80.9588 24.67 80.6508 24.992 80.1748 24.992C79.6848 24.992 79.3768 24.67 79.3768 23.886C79.3768 23.116 79.6848 22.794 80.1748 22.794Z" fill="white"/>
</svg>
