<svg width="115" height="43" viewBox="0 0 115 43" fill="none" xmlns="http://www.w3.org/2000/svg">
<rect x="109" y="2" width="38" height="107" rx="4" transform="rotate(90 109 2)" fill="white"/>
<path d="M-1.64498e-05 33.2583L-1.55722e-05 8.75275C-1.53993e-05 3.9244 4.32722 -4.41105e-06 9.63902 -4.12764e-06L101.481 -5.14927e-07C106.805 -2.30874e-07 111.132 3.92441 111.132 8.75276L111.132 33.2583C111.132 38.0866 106.805 42.011 101.481 42.011L9.65117 42.011C4.32722 42 -1.66223e-05 38.0756 -1.64498e-05 33.2583ZM108.653 8.75276C108.653 5.15906 105.432 2.2378 101.469 2.23779L9.63902 2.23779C5.67644 2.23779 2.45533 5.15905 2.45533 8.75275L2.45533 33.2583C2.45533 36.852 5.67644 39.7732 9.63901 39.7732L101.481 39.7732C105.444 39.7732 108.665 36.852 108.665 33.2583L108.665 8.75276L108.653 8.75276Z" fill="#484D4D"/>
<rect x="111" y="13" width="4" height="16" fill="#484D4D"/>
<rect x="88" y="4" width="34" height="65" transform="rotate(90 88 4)" fill="#55BA44"/>
<path d="M9 4C6.79086 4 5 5.79086 5 8L5 34C5 36.2091 6.79086 38 9 38L20 38L20 4L9 4Z" fill="#D5D5D5"/>
<path d="M102 4C104.209 4 106 5.79086 106 8L106 34C106 36.2091 104.209 38 102 38L91 38L91 4L102 4Z" fill="#D5D5D5"/>
<path d="M31.862 26L33.878 26L33.878 15.794L30.504 15.794L30.504 17.6L31.862 17.6L31.862 26ZM36.3463 15.766L36.3463 21.758L38.2223 21.758C38.4323 21.128 38.9503 20.68 39.7623 20.68C40.8683 20.68 41.4423 21.31 41.4423 22.458C41.4423 23.536 40.9243 24.348 39.7763 24.348C38.8243 24.348 38.2503 23.83 38.0823 23.116L36.1783 23.116C36.3463 24.782 37.6063 26 39.8043 26C42.1283 26 43.3323 24.516 43.3323 22.43C43.3323 20.848 42.5203 19.056 40.1403 19.056C39.2863 19.056 38.5163 19.42 38.1383 19.882L38.1383 17.488L42.6743 17.488L42.6743 15.766L36.3463 15.766ZM45.076 21.828L51.012 21.828L51.012 20.176L45.076 20.176L45.076 21.828ZM54.6941 20.596C53.6861 21.016 53.0561 21.898 53.0561 23.102C53.0561 25.048 54.6521 26.224 56.7381 26.224C58.8381 26.224 60.4341 25.048 60.4341 23.102C60.4341 21.912 59.8041 21.03 58.7961 20.596C59.5941 20.19 60.1821 19.42 60.1821 18.342C60.1821 16.886 59.0621 15.598 56.7381 15.598C54.4141 15.598 53.2941 16.872 53.2941 18.342C53.2941 19.448 53.8541 20.162 54.6941 20.596ZM56.7381 20.022C55.8561 20.022 55.2121 19.476 55.2121 18.636C55.2121 17.684 55.8281 17.18 56.7381 17.18C57.6761 17.18 58.2781 17.698 58.2781 18.622C58.2781 19.462 57.6341 20.022 56.7381 20.022ZM56.7381 21.45C57.7881 21.45 58.5161 22.01 58.5161 23.018C58.5161 23.914 57.8581 24.6 56.7381 24.6C55.6181 24.6 54.9461 23.928 54.9461 23.018C54.9461 21.982 55.7161 21.45 56.7381 21.45ZM62.5142 15.766L62.5142 21.758L64.3902 21.758C64.6002 21.128 65.1182 20.68 65.9302 20.68C67.0362 20.68 67.6102 21.31 67.6102 22.458C67.6102 23.536 67.0922 24.348 65.9442 24.348C64.9922 24.348 64.4182 23.83 64.2502 23.116L62.3462 23.116C62.5142 24.782 63.7742 26 65.9722 26C68.2962 26 69.5002 24.516 69.5002 22.43C69.5002 20.848 68.6882 19.056 66.3082 19.056C65.4542 19.056 64.6842 19.42 64.3062 19.882L64.3062 17.488L68.8422 17.488L68.8422 15.766L62.5142 15.766ZM70.768 18.3C70.768 19.77 71.72 20.582 72.994 20.582C74.268 20.582 75.22 19.77 75.22 18.3C75.22 16.844 74.268 16.032 72.994 16.032C71.72 16.032 70.768 16.844 70.768 18.3ZM72.98 17.208C73.47 17.208 73.778 17.53 73.778 18.3C73.778 19.07 73.47 19.406 72.98 19.406C72.504 19.406 72.21 19.07 72.21 18.3C72.21 17.53 72.504 17.208 72.98 17.208ZM72.35 26L74.254 26L79.756 16.2L77.838 16.2L72.35 26ZM76.914 23.886C76.914 25.37 77.866 26.168 79.14 26.168C80.4 26.168 81.338 25.37 81.338 23.886C81.338 22.416 80.4 21.618 79.14 21.618C77.866 21.618 76.914 22.416 76.914 23.886ZM79.126 22.794C79.602 22.794 79.91 23.116 79.91 23.886C79.91 24.67 79.602 24.992 79.126 24.992C78.636 24.992 78.328 24.67 78.328 23.886C78.328 23.116 78.636 22.794 79.126 22.794Z" fill="white"/>
</svg>
