<svg width="21" height="21" viewBox="0 0 21 21" fill="none" xmlns="http://www.w3.org/2000/svg">
<path d="M9.14571 1.57622L0.239855 18.1626C-0.26327 19.1001 0.468598 20.2032 1.59416 20.2032H19.4059C20.5314 20.2032 21.2635 19.1001 20.7602 18.1626L11.8543 1.57622C11.2962 0.537092 9.70382 0.537092 9.14571 1.57622V1.57622Z" fill="#F0C357"/>
<path d="M10.5 4.7008C10.3704 4.69883 10.2418 4.72275 10.1216 4.77116C10.0014 4.81957 9.89203 4.89148 9.79998 4.98269C9.70794 5.0739 9.63503 5.18257 9.58552 5.30233C9.53602 5.42208 9.51093 5.55051 9.51171 5.68009L9.69445 13.6383C9.70199 13.8459 9.79053 14.0422 9.94109 14.1854C10.0917 14.3285 10.2923 14.4069 10.5 14.4039C10.7077 14.4069 10.9082 14.3284 11.0588 14.1853C11.2093 14.0422 11.2978 13.8458 11.3053 13.6383L11.4883 5.68009C11.489 5.55051 11.464 5.42208 11.4145 5.30233C11.3649 5.18257 11.292 5.0739 11.2 4.98269C11.1079 4.89148 10.9986 4.81957 10.8784 4.77116C10.7582 4.72275 10.6296 4.69883 10.5 4.7008Z" fill="#423E4F"/>
<path d="M10.5 18.0869C11.0954 18.0869 11.5781 17.6042 11.5781 17.0088C11.5781 16.4134 11.0954 15.9307 10.5 15.9307C9.90457 15.9307 9.42188 16.4134 9.42188 17.0088C9.42188 17.6042 9.90457 18.0869 10.5 18.0869Z" fill="#423E4F"/>
</svg>
