<svg width="14" height="14" viewBox="0 0 14 14" fill="none" xmlns="http://www.w3.org/2000/svg">
<circle cx="7" cy="7" r="7" fill="#EDEDFF"/>
<path d="M7.35547 8.26172H6.35938C6.36198 8.02734 6.38021 7.82552 6.41406 7.65625C6.45052 7.48438 6.51172 7.32943 6.59766 7.19141C6.6862 7.05339 6.80339 6.91667 6.94922 6.78125C7.07161 6.67188 7.17839 6.56771 7.26953 6.46875C7.36068 6.36979 7.43229 6.26823 7.48438 6.16406C7.53646 6.05729 7.5625 5.9388 7.5625 5.80859C7.5625 5.65755 7.53906 5.53255 7.49219 5.43359C7.44792 5.33203 7.38021 5.25521 7.28906 5.20312C7.20052 5.15104 7.08854 5.125 6.95312 5.125C6.84115 5.125 6.73698 5.14974 6.64062 5.19922C6.54427 5.24609 6.46484 5.31901 6.40234 5.41797C6.34245 5.51693 6.3112 5.64714 6.30859 5.80859H5.17578C5.18359 5.45182 5.26562 5.15755 5.42188 4.92578C5.58073 4.69141 5.79297 4.51823 6.05859 4.40625C6.32422 4.29167 6.6224 4.23438 6.95312 4.23438C7.31771 4.23438 7.63021 4.29427 7.89062 4.41406C8.15104 4.53125 8.35026 4.70443 8.48828 4.93359C8.6263 5.16016 8.69531 5.4362 8.69531 5.76172C8.69531 5.98828 8.65104 6.1901 8.5625 6.36719C8.47396 6.54167 8.35807 6.70443 8.21484 6.85547C8.07161 7.00651 7.91406 7.16276 7.74219 7.32422C7.59375 7.45703 7.49219 7.59635 7.4375 7.74219C7.38542 7.88802 7.35807 8.0612 7.35547 8.26172ZM6.24219 9.46875C6.24219 9.30208 6.29948 9.16406 6.41406 9.05469C6.52865 8.94271 6.68229 8.88672 6.875 8.88672C7.0651 8.88672 7.21745 8.94271 7.33203 9.05469C7.44922 9.16406 7.50781 9.30208 7.50781 9.46875C7.50781 9.63021 7.44922 9.76693 7.33203 9.87891C7.21745 9.99089 7.0651 10.0469 6.875 10.0469C6.68229 10.0469 6.52865 9.99089 6.41406 9.87891C6.29948 9.76693 6.24219 9.63021 6.24219 9.46875Z" fill="#4E4BC9"/>
</svg>
