<svg width="14" height="22" viewBox="0 0 14 22" fill="none" xmlns="http://www.w3.org/2000/svg">
<path d="M5.89159 19.7487H8.10825V17.2279L12.1041 12.8683V7.61908C12.1041 7.52022 12.0652 7.43125 11.9874 7.35217C11.9096 7.27308 11.8221 7.23354 11.7249 7.23354H2.27492C2.1777 7.23354 2.0902 7.27308 2.01242 7.35217C1.93464 7.43125 1.89575 7.52022 1.89575 7.61908V12.8683L5.89159 17.2279V19.7487ZM4.57909 21.0833V17.7914L0.583252 13.4022V7.61908C0.583252 7.14457 0.74853 6.73926 1.07909 6.40315C1.40964 6.06703 1.80825 5.89898 2.27492 5.89898H4.25825L3.58742 6.58109V0.916626H4.92909V5.89898H9.07075V0.916626H10.4124V6.58109L9.74159 5.89898H11.7249C12.1916 5.89898 12.5902 6.06703 12.9208 6.40315C13.2513 6.73926 13.4166 7.14457 13.4166 7.61908V13.4022L9.42075 17.7914V21.0833H4.57909Z" fill="#666666"/>
</svg>
