<svg width="10" height="18" viewBox="0 0 10 18" fill="none" xmlns="http://www.w3.org/2000/svg">
<path d="M1.49369 17.6166C1.29507 17.6166 1.13466 17.5555 1.01244 17.4333C0.890213 17.3111 0.829102 17.1507 0.829102 16.952V2.4458C0.829102 2.26247 0.890213 2.10587 1.01244 1.97601C1.13466 1.84615 1.29507 1.78122 1.49369 1.78122H3.3041V0.383301H6.69577V1.78122H8.50619C8.7048 1.78122 8.86521 1.84615 8.98744 1.97601C9.10966 2.10587 9.17077 2.26247 9.17077 2.4458V16.952C9.17077 17.1507 9.10966 17.3111 8.98744 17.4333C8.86521 17.5555 8.7048 17.6166 8.50619 17.6166H1.49369ZM1.86035 4.7833H8.13952V2.81247H1.86035V4.7833Z" fill="#666666"/>
</svg>
