<svg width="21" height="21" viewBox="0 0 21 21" fill="none" xmlns="http://www.w3.org/2000/svg">
<path d="M8.94788 18.4256V15.6791L5.56245 12.0172V7.19231C5.56245 6.82941 5.67365 6.52012 5.89605 6.26445C6.11845 6.00877 6.39439 5.87268 6.72387 5.85619L7.81116 6.94488H6.87214C6.82272 6.94488 6.77741 6.9655 6.73623 7.00674C6.69504 7.04797 6.67445 7.10983 6.67445 7.19231V11.5718L10.0599 15.209V17.3122H11.9379V15.209L13.1735 13.8729L0.916748 1.62515L1.70751 0.833374L20.1667 19.2916L19.376 20.0834L13.9642 14.6894L13.0499 15.6791V18.4256H8.94788ZM15.9164 12.7842L15.3234 12.1904V7.19231C15.3234 7.10983 15.2904 7.0356 15.2245 6.96962C15.1586 6.90364 15.0845 6.87065 15.0021 6.87065H10.0352L8.1077 4.96544V1.60041H9.24441V5.75722H12.7534V1.60041H13.8901V6.3263L13.3218 5.75722H15.0021C15.3975 5.75722 15.7352 5.89743 16.0153 6.17785C16.2953 6.45827 16.4354 6.79642 16.4354 7.19231V12.1904L15.9164 12.7842Z" fill="#666666"/>
</svg>
