<svg width="28" height="28" viewBox="0 0 28 28" fill="none" xmlns="http://www.w3.org/2000/svg">
<path d="M25.9295 17.6591C25.7457 17.0218 25.2284 16.5402 24.5796 16.4022C24.1642 16.3138 23.7321 16.3783 23.3631 16.5745C23.5767 15.2457 23.4645 13.8713 23.0248 12.5901C22.9408 12.3452 22.6741 12.215 22.4293 12.2989C22.1844 12.3829 22.054 12.6495 22.138 12.8944C22.6573 14.4075 22.6615 16.0673 22.1528 17.5821L18.4172 20.8999C18.1867 21.1046 17.9339 21.2781 17.6653 21.419C17.7412 21.1117 17.736 20.7864 17.6448 20.4773C17.5008 19.9891 17.1549 19.583 16.6958 19.3632L13.3866 17.7782C11.9398 17.0852 10.2464 17.005 8.74061 17.5578L8.40423 17.6814C7.47054 15.0438 8.12044 12.1186 10.1199 10.1192L13.4293 6.80984H17.093L19.897 9.61385C20.0801 9.79686 20.3769 9.79686 20.56 9.61385C20.7431 9.4308 20.7431 9.13398 20.56 8.95088L17.8808 6.27184L18.8494 3.48465C18.9792 3.111 18.8358 2.70336 18.5006 2.49326C18.1656 2.2832 17.7361 2.33191 17.4564 2.61148L17.4506 2.61725C17.2569 2.81108 16.9415 2.81108 16.7477 2.61725C15.925 1.79461 14.5865 1.79461 13.7637 2.61725C13.6699 2.71114 13.545 2.7628 13.4123 2.7628C13.2795 2.7628 13.1547 2.71109 13.0609 2.61725C12.7809 2.33725 12.3511 2.28878 12.0158 2.49949C11.6805 2.71016 11.5376 3.11836 11.6685 3.49215L12.6412 6.27212L9.45698 9.4563C8.27855 10.6348 7.4952 12.1206 7.19172 13.7531C6.92551 15.1847 7.04082 16.6444 7.52342 18.0049L6.78441 18.2762C6.5385 17.9565 6.15247 17.7498 5.7189 17.7498H3.34381C2.60283 17.7499 2 18.3527 2 19.0937V24.6563C2 25.3973 2.60283 26.0001 3.34381 26.0001H15.6988C17.6394 26.0001 19.4746 25.2552 20.8662 23.9027L25.4563 19.4417C25.9319 18.9795 26.1132 18.2965 25.9295 17.6591ZM13.4122 3.70038C13.7954 3.70038 14.1557 3.55117 14.4266 3.28022C14.8838 2.82308 15.6276 2.82308 16.0848 3.28022C16.3557 3.55117 16.716 3.70038 17.0992 3.70038C17.3712 3.70038 17.6317 3.62519 17.8569 3.48456L17.0272 5.87235H13.4946L12.6603 3.48812C12.8842 3.62641 13.1425 3.70038 13.4122 3.70038ZM2.93753 24.6564V19.0937C2.93753 18.8696 3.11979 18.6874 3.34381 18.6874H5.71886C5.94288 18.6874 6.12514 18.8696 6.12514 19.0937V24.6563C6.12514 24.8803 5.94288 25.0626 5.71886 25.0626H3.34381C3.11979 25.0626 2.93753 24.8804 2.93753 24.6564ZM24.8029 18.7695L20.2128 23.2305C18.9971 24.4119 17.394 25.0626 15.6988 25.0626H6.99971C7.0405 24.9344 7.06267 24.7979 7.06267 24.6564V19.1728L9.06374 18.438C10.3335 17.9719 11.7616 18.0394 12.9816 18.6238L16.2909 20.2088C16.5141 20.3157 16.6756 20.5053 16.7456 20.7427C16.8156 20.9801 16.7829 21.2271 16.6535 21.438C16.4456 21.7769 16.0356 21.9294 15.6568 21.809L11.2604 20.411C11.0138 20.3326 10.7501 20.4689 10.6716 20.7157C10.5932 20.9624 10.7295 21.226 10.9763 21.3045L15.3727 22.7025C15.5537 22.7601 15.7381 22.7877 15.9201 22.7877C15.9421 22.7877 15.9639 22.7864 15.9858 22.7856C17.1132 22.7694 18.1953 22.3509 19.0396 21.601L23.6385 17.5164C23.8409 17.3368 24.1199 17.2631 24.3845 17.3193C24.6987 17.3862 24.9395 17.6103 25.0285 17.919C25.1176 18.2276 25.0333 18.5455 24.8029 18.7695Z" fill="#4E4BC9"/>
<path fill-rule="evenodd" clip-rule="evenodd" d="M26.3138 17.5485C26.5385 18.3277 26.3166 19.1637 25.735 19.7288L21.145 24.1898C19.6787 25.6149 17.7435 26.4003 15.6988 26.4003H3.34381C2.38192 26.4003 1.6 25.6184 1.6 24.6565V19.0939C1.6 18.132 2.38193 17.3501 3.34381 17.3501H5.7189C6.17319 17.3501 6.58674 17.5249 6.89658 17.8091L7.02269 17.7628C6.62219 16.4448 6.54378 15.0497 6.79846 13.6801C7.11677 11.9679 7.93879 10.4091 9.17413 9.17368L12.1806 6.16721L11.2909 3.62451C11.0985 3.07457 11.3096 2.47096 11.803 2.16101C12.2964 1.85101 12.9318 1.92269 13.3437 2.33462C13.3625 2.35344 13.3856 2.36302 13.4123 2.36302C13.4391 2.36302 13.4621 2.35343 13.4808 2.33469C14.4597 1.35587 16.0516 1.35578 17.0306 2.33461C17.0681 2.37214 17.1302 2.37223 17.1677 2.33469L17.1735 2.32884C17.585 1.91757 18.22 1.84542 18.7131 2.15457C19.2062 2.46369 19.4183 3.06638 19.2272 3.61616L18.341 6.1665L20.8429 8.66825C21.1821 9.00753 21.1821 9.55763 20.8429 9.89692C20.5036 10.236 19.9536 10.2361 19.6143 9.89699L16.9273 7.21006H13.595L10.4027 10.4022C8.60951 12.1954 7.96518 14.7744 8.65737 17.1628C10.2506 16.5946 12.0327 16.6864 13.5593 17.4176L16.8686 19.0027C17.4298 19.2714 17.8523 19.7674 18.0285 20.3643C18.0565 20.4592 18.0779 20.5554 18.0927 20.6521C18.1125 20.6353 18.1321 20.6183 18.1515 20.601L21.8063 17.3551C22.2539 15.9507 22.239 14.4209 21.7597 13.0245C21.604 12.5707 21.8456 12.0765 22.2994 11.9207C22.7527 11.7655 23.2473 12.0063 23.4032 12.4605C23.7938 13.5988 23.9379 14.8064 23.8368 15.9954C24.1075 15.9489 24.3879 15.9527 24.6629 16.0112C25.456 16.1799 26.0891 16.7693 26.3138 17.5485ZM23.7912 16.4129C24.0472 16.3518 24.3167 16.3465 24.5796 16.4025C25.2284 16.5405 25.7456 17.022 25.9295 17.6594C26.1132 18.2967 25.9319 18.9797 25.4563 19.4419L20.8662 23.9029C19.4745 25.2555 17.6394 26.0003 15.6988 26.0003H3.34381C2.60283 26.0003 2 25.3975 2 24.6565V19.0939C2 18.3529 2.60283 17.7501 3.34381 17.7501H5.7189C6.15246 17.7501 6.53849 17.9567 6.78441 18.2764L7.52342 18.0051C7.04082 16.6447 6.92551 15.1849 7.19172 13.7533C7.4952 12.1208 8.27855 10.635 9.45698 9.45652L12.6412 6.27234L11.6685 3.49237C11.5515 3.15804 11.6534 2.79618 11.9161 2.57276C11.9194 2.57001 11.9226 2.56728 11.9259 2.56457C11.9541 2.54132 11.9841 2.51963 12.0158 2.49971C12.3511 2.289 12.7809 2.33747 13.0609 2.61747C13.1547 2.71131 13.2795 2.76302 13.4123 2.76302C13.545 2.76302 13.6699 2.71136 13.7637 2.61747C14.5864 1.79483 15.925 1.79483 16.7477 2.61747C16.9415 2.8113 17.2569 2.8113 17.4506 2.61747L17.4564 2.6117C17.7361 2.33213 18.1656 2.28342 18.5006 2.49348C18.5315 2.51284 18.5608 2.53387 18.5883 2.55641C18.5921 2.55952 18.5959 2.56266 18.5997 2.56583C18.8629 2.7887 18.9656 3.1504 18.8494 3.48487L17.8808 6.27206L20.56 8.9511C20.7431 9.1342 20.7431 9.43102 20.56 9.61407C20.3769 9.79708 20.0801 9.79708 19.897 9.61407L17.093 6.81006H13.4293L10.1199 10.1194C8.2162 12.0231 7.53589 14.7659 8.28094 17.3007C8.31842 17.4283 8.35951 17.5552 8.40423 17.6816L8.74061 17.5581C8.75366 17.5533 8.76672 17.5485 8.77979 17.5438C10.2757 17.0067 11.9523 17.0914 13.3865 17.7784L16.6958 19.3634C17.1549 19.5833 17.5008 19.9893 17.6448 20.4775C17.6884 20.6251 17.7123 20.7765 17.7172 20.9278C17.7225 21.0933 17.7049 21.2587 17.6653 21.4192C17.82 21.3381 17.9694 21.2461 18.1124 21.1436C18.2177 21.0681 18.3194 20.9869 18.4172 20.9001L22.1528 17.5823C22.6615 16.0675 22.6573 14.4077 22.138 12.8946C22.054 12.6498 22.1844 12.3831 22.4293 12.2991C22.6741 12.2153 22.9408 12.3454 23.0248 12.5903C23.4132 13.7221 23.5461 14.9267 23.4245 16.1083C23.4084 16.2642 23.388 16.4198 23.3631 16.5747C23.4986 16.5027 23.6426 16.4484 23.7912 16.4129ZM14.4266 3.28044C14.1557 3.55139 13.7954 3.7006 13.4122 3.7006C13.3233 3.7006 13.2356 3.69256 13.15 3.67683C12.9759 3.64484 12.8104 3.58104 12.6603 3.48834L13.4946 5.87257H17.0272L17.8569 3.48478C17.7069 3.57843 17.5413 3.64306 17.3671 3.67579C17.2796 3.69221 17.1901 3.7006 17.0992 3.7006C16.716 3.7006 16.3557 3.55139 16.0848 3.28044C15.6276 2.8233 14.8838 2.8233 14.4266 3.28044ZM17.2208 4.09663C17.1805 4.09927 17.1399 4.1006 17.0992 4.1006C16.6099 4.1006 16.1479 3.90926 15.8019 3.56328C15.501 3.26235 15.0104 3.26235 14.7095 3.56328C14.3635 3.90922 13.9015 4.1006 13.4122 4.1006C13.3737 4.1006 13.3353 4.09941 13.2971 4.09704L13.7784 5.47257H16.7427L17.2208 4.09663ZM3.34381 24.6628H5.71886L5.72029 24.6627L5.72316 24.6608L5.72485 24.6585L5.72514 24.6565V19.0939L5.72485 19.0919L5.72316 19.0896L5.7208 19.0879L5.71886 19.0876H3.34381L3.34189 19.0879L3.3395 19.0896L3.33875 19.0904L3.33781 19.0919L3.33753 19.0939V24.6566L3.3378 24.6585L3.33949 24.6609L3.34148 24.6624L3.34381 24.6628ZM16.2909 20.2091L12.9816 18.624C11.7616 18.0397 10.3335 17.9721 9.06373 18.4383L7.06267 19.173V24.6566C7.06267 24.6587 7.06266 24.6608 7.06265 24.6629C7.06201 24.8022 7.03989 24.9365 6.99971 25.0629H15.6988C17.394 25.0629 18.9971 24.4122 20.2128 23.2307L24.8029 18.7697C25.0333 18.5457 25.1176 18.2278 25.0285 17.9192C24.9395 17.6106 24.6987 17.3864 24.3845 17.3195C24.1199 17.2633 23.8409 17.337 23.6385 17.5167L19.0396 21.6012C18.1953 22.3511 17.6274 22.4837 16.5 22.4999C16.5142 22.2141 15.7779 22.2539 15.5 22.4999C15.5 22.4999 15.7936 22.7858 15.7779 22.7858C15.5958 22.7858 15.5537 22.7603 15.3727 22.7027L10.9763 21.3047C10.7295 21.2262 10.5932 20.9626 10.6716 20.7159C10.7501 20.4691 11.0138 20.3328 11.2604 20.4112L15.6568 21.8092C16.0356 21.9296 16.4456 21.7771 16.6535 21.4383C16.7829 21.2273 16.8156 20.9803 16.7456 20.7429C16.6756 20.5056 16.5141 20.3159 16.2909 20.2091ZM16.3126 21.2291C16.3827 21.1147 16.3999 20.9849 16.3619 20.8561C16.3239 20.7274 16.2391 20.6278 16.1181 20.5698L12.8088 18.9848C11.6861 18.447 10.3701 18.3847 9.2016 18.8137L7.46267 19.4522V24.6566C7.46267 24.6587 7.46266 24.6608 7.46266 24.6629H15.6988C17.2899 24.6629 18.7929 24.0528 19.934 22.9438L24.5241 18.4828C24.6486 18.3618 24.6923 18.1968 24.6442 18.0303C24.5961 17.8635 24.4711 17.7469 24.3013 17.7108C24.161 17.681 24.0115 17.7205 23.9042 17.8157L19.3053 21.9003C18.3903 22.7129 17.2179 23.1669 15.9968 23.1857L16.0003 23.1856M15.7779 21.428L11.3816 20.03C10.9246 19.8848 10.4359 20.1373 10.2904 20.5946C10.1451 21.0518 10.3977 21.5405 10.8551 21.6859L15.2514 23.0839C15.4722 23.1541 15.6975 23.1879 15.9201 23.1879C15.946 23.1879 15.977 23.1866 15.9926 23.1859L15.9968 23.1857M16.3126 21.2291C16.2009 21.4111 15.9816 21.4927 15.7779 21.428L16.3126 21.2291ZM3.34381 25.0628H5.71886C5.94288 25.0628 6.12514 24.8805 6.12514 24.6565V19.0939C6.12514 18.8698 5.94288 18.6876 5.71886 18.6876H3.34381C3.11979 18.6876 2.93753 18.8698 2.93753 19.0939V24.6566C2.93753 24.8806 3.11979 25.0629 3.34381 25.0628Z" fill="#4E4BC9"/>
<path fill-rule="evenodd" clip-rule="evenodd" d="M18.9928 8.04952C19.1495 7.86142 19.4291 7.83601 19.6172 7.99275C21.6861 9.71691 23.1541 12.2771 23.4389 14.2706C23.4735 14.513 23.3051 14.7376 23.0627 14.7722C22.8203 14.8068 22.5958 14.6384 22.5611 14.396C22.3126 12.6562 20.9805 10.2831 19.0495 8.67391C18.8614 8.51716 18.836 8.23761 18.9928 8.04952Z" fill="#4E4BC9" stroke="#4E4BC9" stroke-width="0.8" stroke-linecap="round"/>
<path d="M18.0342 11.6631L17.79 12.5664H13.2002L13.4492 11.6631H18.0342ZM15.749 17L13.3418 14.1582L13.3369 13.377H14.499C14.7822 13.377 15.015 13.3249 15.1973 13.2207C15.3828 13.1133 15.5212 12.9684 15.6123 12.7861C15.7067 12.6038 15.7539 12.3988 15.7539 12.1709C15.7539 11.9333 15.7116 11.7233 15.627 11.541C15.5423 11.3555 15.4072 11.2106 15.2217 11.1064C15.0361 11.0023 14.7904 10.9502 14.4844 10.9502H13.2051L13.4834 9.89062H14.4844C15.0638 9.89062 15.5456 9.97852 15.9297 10.1543C16.3171 10.3268 16.6068 10.5791 16.7988 10.9111C16.9941 11.2399 17.0918 11.637 17.0918 12.1025C17.0918 12.5094 17.0234 12.8691 16.8867 13.1816C16.7533 13.4909 16.5368 13.7432 16.2373 13.9385C15.9378 14.1338 15.5439 14.264 15.0557 14.3291L17.2383 16.9316V17H15.749ZM18.0391 9.89062L17.79 10.7939H14.0156L14.2646 9.89062H18.0391Z" fill="#4E4BC9"/>
</svg>
