<svg width="28" height="28" viewBox="0 0 28 28" fill="none" xmlns="http://www.w3.org/2000/svg">
<rect width="28" height="28" fill="white"/>
<path d="M18.1447 12.4531C18.1447 11.9785 17.76 11.5938 17.2853 11.5938H8.43378C7.95914 11.5938 7.5744 11.9785 7.5744 12.4531C7.5744 12.9278 7.95914 13.3125 8.43378 13.3125H17.2853C17.76 13.3125 18.1447 12.9278 18.1447 12.4531Z" fill="#4E4BC9"/>
<path d="M8.43378 15.0312C7.95914 15.0312 7.5744 15.416 7.5744 15.8906C7.5744 16.3653 7.95914 16.75 8.43378 16.75H13.8096C14.2843 16.75 14.669 16.3653 14.669 15.8906C14.669 15.416 14.2843 15.0312 13.8096 15.0312H8.43378Z" fill="#4E4BC9"/>
<path d="M10.4533 23.2812H7.57918C6.63146 23.2812 5.86043 22.5102 5.86043 21.5625V6.4375C5.86043 5.48978 6.63146 4.71875 7.57918 4.71875H18.1447C19.0924 4.71875 19.8635 5.48978 19.8635 6.4375V11.7227C19.8635 12.1973 20.2482 12.582 20.7228 12.582C21.1975 12.582 21.5822 12.1973 21.5822 11.7227V6.4375C21.5822 4.54206 20.0402 3 18.1447 3H7.57918C5.68374 3 4.14168 4.54206 4.14168 6.4375V21.5625C4.14168 23.4579 5.68374 25 7.57918 25H10.4533C10.9279 25 11.3127 24.6153 11.3127 24.1406C11.3127 23.666 10.9279 23.2812 10.4533 23.2812Z" fill="#4E4BC9"/>
<path d="M23.1044 15.4425C22.0992 14.4373 20.4636 14.4373 19.4591 15.4419L14.741 20.1495C14.6407 20.2495 14.5668 20.3727 14.5257 20.5081L13.4982 23.8908C13.4071 24.1907 13.4864 24.5164 13.7053 24.7407C13.8693 24.9088 14.092 25 14.3205 25C14.3969 25 14.4741 24.9898 14.5499 24.9688L18.0185 24.0079C18.1613 23.9684 18.2914 23.8927 18.3962 23.788L23.1044 19.0886C24.1096 18.0834 24.1096 16.4478 23.1044 15.4425ZM17.3419 22.4119L15.5969 22.8953L16.1076 21.214L19.2911 18.0375L20.5067 19.2531L17.3419 22.4119ZM21.8897 17.8728L21.7232 18.0389L20.5078 16.8236L20.6738 16.658C21.0088 16.3229 21.554 16.3229 21.8891 16.658C22.2242 16.993 22.2242 17.5382 21.8897 17.8728Z" fill="#4E4BC9"/>
<path d="M17.2853 8.15625H8.43378C7.95914 8.15625 7.5744 8.54099 7.5744 9.01562C7.5744 9.49026 7.95914 9.875 8.43378 9.875H17.2853C17.76 9.875 18.1447 9.49026 18.1447 9.01562C18.1447 8.54099 17.76 8.15625 17.2853 8.15625Z" fill="#4E4BC9"/>
</svg>
