<svg width="26" height="26" viewBox="0 0 26 26" fill="none" xmlns="http://www.w3.org/2000/svg">
<path d="M24.9295 16.6594C24.7457 16.022 24.2284 15.5405 23.5796 15.4025C23.1642 15.314 22.7321 15.3785 22.3631 15.5747C22.5767 14.246 22.4645 12.8715 22.0248 11.5903C21.9408 11.3454 21.6741 11.2153 21.4293 11.2991C21.1844 11.3831 21.054 11.6498 21.138 11.8946C21.6573 13.4077 21.6615 15.0675 21.1528 16.5823L17.4172 19.9001C17.1867 20.1048 16.9339 20.2783 16.6653 20.4192C16.7412 20.112 16.736 19.7866 16.6448 19.4775C16.5008 18.9893 16.1549 18.5833 15.6958 18.3634L12.3866 16.7784C10.9398 16.0854 9.24638 16.0052 7.74061 16.5581L7.40423 16.6816C6.47054 14.044 7.12044 11.1188 9.11991 9.1194L12.4293 5.81006H16.093L18.897 8.61407C19.0801 8.79708 19.3769 8.79708 19.56 8.61407C19.7431 8.43102 19.7431 8.1342 19.56 7.9511L16.8808 5.27206L17.8494 2.48487C17.9792 2.11122 17.8358 1.70358 17.5006 1.49348C17.1656 1.28342 16.7361 1.33213 16.4564 1.6117L16.4506 1.61747C16.2569 1.8113 15.9415 1.8113 15.7477 1.61747C14.925 0.794829 13.5865 0.794829 12.7637 1.61747C12.6699 1.71136 12.545 1.76302 12.4123 1.76302C12.2795 1.76302 12.1547 1.71131 12.0609 1.61747C11.7809 1.33747 11.3511 1.289 11.0158 1.49971C10.6805 1.71038 10.5376 2.11858 10.6685 2.49237L11.6412 5.27234L8.45698 8.45652C7.27855 9.635 6.4952 11.1208 6.19172 12.7533C5.92551 14.1849 6.04082 15.6447 6.52342 17.0051L5.78441 17.2764C5.5385 16.9567 5.15247 16.7501 4.7189 16.7501H2.34381C1.60283 16.7501 1 17.3529 1 18.0939V23.6565C1 24.3975 1.60283 25.0003 2.34381 25.0003H14.6988C16.6394 25.0003 18.4746 24.2555 19.8662 22.9029L24.4563 18.4419C24.9319 17.9797 25.1132 17.2967 24.9295 16.6594ZM12.4122 2.7006C12.7954 2.7006 13.1557 2.55139 13.4266 2.28044C13.8838 1.8233 14.6276 1.8233 15.0848 2.28044C15.3557 2.55139 15.716 2.7006 16.0992 2.7006C16.3712 2.7006 16.6317 2.62541 16.8569 2.48478L16.0272 4.87257H12.4946L11.6603 2.48834C11.8842 2.62662 12.1425 2.7006 12.4122 2.7006ZM1.93753 23.6566V18.0939C1.93753 17.8699 2.11979 17.6876 2.34381 17.6876H4.71886C4.94288 17.6876 5.12514 17.8699 5.12514 18.0939V23.6565C5.12514 23.8806 4.94288 24.0628 4.71886 24.0628H2.34381C2.11979 24.0629 1.93753 23.8806 1.93753 23.6566ZM23.8029 17.7697L19.2128 22.2307C17.9971 23.4122 16.394 24.0629 14.6988 24.0629H5.99971C6.0405 23.9346 6.06267 23.7981 6.06267 23.6566V18.173L8.06374 17.4383C9.33348 16.9721 10.7616 17.0397 11.9816 17.624L15.2909 19.2091C15.5141 19.3159 15.6756 19.5056 15.7456 19.7429C15.8156 19.9803 15.7829 20.2273 15.6535 20.4383C15.4456 20.7771 15.0356 20.9296 14.6568 20.8092L10.2604 19.4112C10.0138 19.3328 9.75012 19.4691 9.6716 19.7159C9.59318 19.9626 9.72954 20.2262 9.9763 20.3047L14.3727 21.7027C14.5537 21.7603 14.7381 21.7879 14.9201 21.7879C14.9421 21.7879 14.9639 21.7866 14.9858 21.7858C16.1132 21.7696 17.1953 21.3511 18.0396 20.6012L22.6385 16.5167C22.8409 16.337 23.1199 16.2633 23.3845 16.3195C23.6987 16.3864 23.9395 16.6106 24.0285 16.9192C24.1176 17.2278 24.0333 17.5457 23.8029 17.7697Z" fill="#C1C1C1"/>
<path fill-rule="evenodd" clip-rule="evenodd" d="M22.5803 15.4771C22.506 15.5047 22.4334 15.5373 22.3631 15.5747C22.3759 15.4951 22.3875 15.4153 22.3979 15.3355C22.4669 15.3049 22.5376 15.2783 22.6094 15.2557C22.6007 15.3296 22.591 15.4034 22.5803 15.4771ZM20.9799 16.4684C21.4578 15.0088 21.4481 13.4142 20.9489 11.9596C20.829 11.6102 21.015 11.2298 21.3644 11.1099C21.7134 10.9904 22.0941 11.1759 22.214 11.5254C22.6259 12.7256 22.7572 14.0052 22.6094 15.2557C22.933 15.1541 23.2819 15.1346 23.6213 15.2068C23.6213 15.2068 23.6213 15.2068 23.6213 15.2068C24.3423 15.3602 24.9174 15.8957 25.1216 16.6039C25.3258 17.3122 25.1243 18.0717 24.5957 18.5854C24.5957 18.5854 24.5957 18.5854 24.5957 18.5854L20.0056 23.0464C18.5766 24.4352 16.6914 25.2003 14.6988 25.2003H2.34381C1.49238 25.2003 0.800003 24.508 0.800003 23.6565V18.0939C0.800003 17.2425 1.49238 16.5501 2.34381 16.5501H4.71891C5.1638 16.5501 5.56481 16.7394 5.84632 17.0406L6.27097 16.8847C5.83077 15.5448 5.73464 14.1174 5.99509 12.7167C6.30599 11.0443 7.10867 9.52204 8.31556 8.3151L11.4109 5.21978L10.4797 2.55844C10.4797 2.55844 10.4797 2.55845 10.4797 2.55844C10.3181 2.09658 10.4951 1.59067 10.9094 1.33037C11.3238 1.07001 11.8563 1.13008 12.2023 1.47604C12.2586 1.53238 12.3326 1.56302 12.4123 1.56302C12.4921 1.56302 12.566 1.5324 12.6223 1.47608C13.5231 0.575349 14.9883 0.575306 15.8892 1.47604C16.0048 1.59172 16.1935 1.59176 16.3092 1.47608L16.315 1.47027C16.6606 1.12485 17.1928 1.06442 17.6069 1.32402C18.021 1.58363 18.1987 2.08879 18.0383 2.55052L17.1109 5.21928L19.7014 7.80967C19.9626 8.07086 19.9626 8.49433 19.7014 8.7555C19.4402 9.01652 19.0169 9.0166 18.7557 8.75553L16.0102 6.01006H12.5121L9.26133 9.26083C7.36486 11.1573 6.71694 13.9089 7.52792 16.4231L7.67168 16.3703C9.22808 15.7989 10.9775 15.8817 12.4729 16.598L15.7822 18.183C16.2923 18.4274 16.6766 18.8784 16.8366 19.4209C16.8961 19.6223 16.9226 19.8298 16.9175 20.0357C17.0452 19.9492 17.1678 19.8541 17.2843 19.7506C17.2844 19.7506 17.2843 19.7506 17.2843 19.7506L20.9799 16.4684ZM17.4172 19.9001C17.2536 20.0454 17.0788 20.1749 16.8951 20.2883C16.8199 20.3346 16.7433 20.3783 16.6653 20.4192C16.6858 20.3361 16.7004 20.2517 16.709 20.1666C16.7321 19.9372 16.7114 19.703 16.6448 19.4775C16.5008 18.9893 16.1549 18.5833 15.6959 18.3634L12.3866 16.7784C10.9398 16.0854 9.24639 16.0052 7.74062 16.5581L7.40423 16.6816C7.38193 16.6186 7.36053 16.5554 7.34003 16.4921C6.50236 13.9048 7.1682 11.0711 9.11991 9.1194L12.4293 5.81006H16.093L18.8971 8.61407C19.0802 8.79708 19.3769 8.79708 19.56 8.61407C19.7431 8.43102 19.7431 8.1342 19.56 7.9511L16.8808 5.27206L17.8494 2.48487C17.9792 2.11122 17.8358 1.70358 17.5006 1.49348C17.1656 1.28342 16.7361 1.33213 16.4564 1.6117L16.4506 1.61747C16.2569 1.8113 15.9415 1.8113 15.7477 1.61747C14.925 0.794829 13.5865 0.794829 12.7637 1.61747C12.6699 1.71136 12.545 1.76302 12.4123 1.76302C12.2795 1.76302 12.1547 1.71131 12.0609 1.61747C11.7809 1.33747 11.3511 1.289 11.0158 1.49971C10.6805 1.71038 10.5376 2.11858 10.6685 2.49237L11.6412 5.27234L8.45699 8.45652C7.27856 9.635 6.4952 11.1208 6.19172 12.7533C5.92551 14.1849 6.04083 15.6447 6.52342 17.0051L5.78441 17.2764C5.5385 16.9567 5.15247 16.7501 4.71891 16.7501H2.34381C1.60284 16.7501 1 17.3529 1 18.0939V23.6565C1 24.3975 1.60284 25.0003 2.34381 25.0003H14.6988C16.6394 25.0003 18.4746 24.2555 19.8662 22.9029L24.4563 18.4419M21.1528 16.5823L17.4172 19.9001ZM13.5681 2.42188C13.2596 2.73032 12.8485 2.9006 12.4122 2.9006C12.2707 2.9006 12.1317 2.88267 11.998 2.84784L12.6365 4.67257H15.8849L16.5196 2.84626C16.3839 2.88213 16.2429 2.9006 16.0992 2.9006C15.663 2.9006 15.2518 2.73032 14.9433 2.42186C14.5643 2.04283 13.9471 2.04284 13.5681 2.42188ZM16.6014 2.61063C16.6904 2.57744 16.7759 2.53534 16.8569 2.48478L16.0272 4.87257H12.4946L11.6603 2.48834C11.7413 2.53837 11.8268 2.57998 11.9157 2.61272C12.0726 2.67047 12.2401 2.7006 12.4122 2.7006C12.7954 2.7006 13.1557 2.55139 13.4267 2.28044C13.8838 1.8233 14.6276 1.8233 15.0848 2.28044C15.3557 2.55139 15.716 2.7006 16.0992 2.7006C16.2734 2.7006 16.4429 2.66975 16.6014 2.61063ZM2.34381 23.8628H4.71886C4.83243 23.8628 4.92514 23.7701 4.92514 23.6565V18.0939C4.92514 17.9803 4.83243 17.8876 4.71886 17.8876H2.34381C2.23025 17.8876 2.13753 17.9803 2.13753 18.0939V23.6566C2.13753 23.7701 2.23029 23.8628 2.34381 23.8628ZM10.2604 19.4112L14.6568 20.8092C15.0356 20.9296 15.4456 20.7771 15.6535 20.4383C15.7829 20.2273 15.8156 19.9803 15.7456 19.7429C15.6756 19.5056 15.5141 19.3159 15.2909 19.2091L11.9816 17.624C10.7616 17.0397 9.33348 16.9721 8.06374 17.4383L6.06267 18.173V23.6566C6.06267 23.7267 6.05723 23.7956 6.04678 23.8629C6.03613 23.9313 6.02029 23.9981 5.99972 24.0629H14.6988C16.394 24.0629 17.9971 23.4122 19.2128 22.2307L23.8029 17.7697C24.0333 17.5457 24.1176 17.2278 24.0285 16.9192C23.9395 16.6106 23.6987 16.3864 23.3845 16.3195C23.1199 16.2633 22.8409 16.337 22.6386 16.5167L18.0396 20.6012C17.1953 21.3511 16.1132 21.7696 14.9858 21.7858C14.9796 21.786 14.9735 21.7863 14.9674 21.7866C14.9516 21.7873 14.9359 21.7879 14.9201 21.7879C14.7381 21.7879 14.5538 21.7603 14.3727 21.7027L9.9763 20.3047C9.72954 20.2262 9.59318 19.9626 9.67161 19.7159C9.75012 19.4691 10.0138 19.3328 10.2604 19.4112ZM14.991 21.9858C14.9878 21.9859 14.9841 21.9861 14.98 21.9862C14.9635 21.9869 14.9407 21.9879 14.9201 21.9879C14.7178 21.9879 14.513 21.9572 14.3121 21.8933L9.91569 20.4953C9.56365 20.3834 9.36913 20.0072 9.481 19.6553C9.59302 19.3033 9.96912 19.1088 10.321 19.2206L14.7173 20.6186C15.0086 20.7112 15.3232 20.5941 15.4831 20.3337C15.5828 20.171 15.6078 19.9826 15.5538 19.7995C15.4998 19.6165 15.3766 19.4719 15.2045 19.3894L11.8952 17.8044C10.7239 17.2434 9.35178 17.1784 8.13267 17.626L6.26267 18.3126V23.6566C6.26267 23.7265 6.25796 23.7953 6.24886 23.8629H14.6988C16.3419 23.8629 17.895 23.2325 19.0734 22.0873L23.6635 17.6263C23.8409 17.4538 23.905 17.2123 23.8363 16.9748C23.7678 16.737 23.5849 16.5667 23.3429 16.5152M14.991 21.9858C16.1654 21.9683 17.2928 21.5321 18.1724 20.7507L22.7713 16.6662C22.9262 16.5287 23.1404 16.4721 23.3429 16.5152M2.34381 24.0628H4.71886C4.94288 24.0628 5.12514 23.8806 5.12514 23.6565V18.0939C5.12514 17.8699 4.94288 17.6876 4.71886 17.6876H2.34381C2.11979 17.6876 1.93753 17.8699 1.93753 18.0939V23.6566C1.93753 23.8806 2.11979 24.0629 2.34381 24.0628Z" fill="#C1C1C1"/>
<path fill-rule="evenodd" clip-rule="evenodd" d="M18.7452 6.83928C18.4722 6.61182 18.0666 6.6487 17.8391 6.92165C17.6117 7.1946 17.6485 7.60027 17.9215 7.82773C19.8214 9.41096 21.1228 11.7419 21.3631 13.4245C21.4134 13.7762 21.7393 14.0206 22.091 13.9704C22.4427 13.9201 22.6871 13.5943 22.6369 13.2425C22.3439 11.1918 20.8453 8.58936 18.7452 6.83928Z" fill="#C1C1C1"/>
<path d="M17.0342 10.6631L16.79 11.5664H12.2002L12.4492 10.6631H17.0342ZM14.749 16L12.3418 13.1582L12.3369 12.377H13.499C13.7822 12.377 14.015 12.3249 14.1973 12.2207C14.3828 12.1133 14.5212 11.9684 14.6123 11.7861C14.7067 11.6038 14.7539 11.3988 14.7539 11.1709C14.7539 10.9333 14.7116 10.7233 14.627 10.541C14.5423 10.3555 14.4072 10.2106 14.2217 10.1064C14.0361 10.0023 13.7904 9.9502 13.4844 9.9502H12.2051L12.4834 8.89062H13.4844C14.0638 8.89062 14.5456 8.97852 14.9297 9.1543C15.3171 9.32682 15.6068 9.5791 15.7988 9.91113C15.9941 10.2399 16.0918 10.637 16.0918 11.1025C16.0918 11.5094 16.0234 11.8691 15.8867 12.1816C15.7533 12.4909 15.5368 12.7432 15.2373 12.9385C14.9378 13.1338 14.5439 13.264 14.0557 13.3291L16.2383 15.9316V16H14.749ZM17.0391 8.89062L16.79 9.79395H13.0156L13.2646 8.89062H17.0391Z" fill="#C1C1C1"/>
</svg>
