<svg width="25" height="28" viewBox="0 0 25 28" fill="none" xmlns="http://www.w3.org/2000/svg">
<path d="M17.4896 10.0955C17.5121 10.0916 17.5349 10.0898 17.5577 10.09C17.6434 10.0923 17.7286 10.0763 17.8077 10.0431C17.8868 10.01 17.9579 9.96042 18.0164 9.89772C18.0749 9.83502 18.1194 9.76061 18.147 9.67941C18.1745 9.59822 18.1845 9.5121 18.1763 9.42674L17.4896 10.0955ZM17.4896 10.0955C17.46 10.1009 14.5034 10.63 12.4529 10.63C10.5097 10.63 7.59337 10.1004 7.56417 10.0951M17.4896 10.0955L7.56417 10.0951M7.58223 9.99678C7.55355 9.99147 7.52444 9.98879 7.49527 9.98876L7.49302 9.98881C7.42119 9.99043 7.34984 9.97678 7.28367 9.94878C7.21751 9.92077 7.15804 9.87905 7.10919 9.82637C7.06034 9.77368 7.02322 9.71124 7.00029 9.64315C6.97736 9.57506 6.96913 9.50288 6.97616 9.43138L6.98078 9.38429L6.97972 9.38323L7.3538 4.45791C7.37203 4.28868 7.45143 4.13191 7.57712 4.01709C7.70297 3.9021 7.86652 3.83712 8.03695 3.83438H17.0159C17.1863 3.83711 17.3499 3.90209 17.4757 4.01707C17.6014 4.1319 17.6808 4.28867 17.6991 4.45791L18.0766 9.43431L18.0766 9.43431L18.0768 9.43632C18.0836 9.50757 18.0753 9.57947 18.0523 9.64726C18.0292 9.71504 17.9921 9.77716 17.9433 9.82951C17.8944 9.88186 17.835 9.92324 17.769 9.95091C17.703 9.97858 17.6319 9.99191 17.5603 9.99001L17.5586 9.99C17.5298 9.98974 17.5011 9.99204 17.4728 9.99689L17.4715 9.99712L17.4712 9.99716L17.4706 9.99728L17.4684 9.99767L17.4609 9.99902L17.4334 10.0039L17.3319 10.0214C17.2446 10.0364 17.1189 10.0574 16.9626 10.0826C16.6499 10.1328 16.2144 10.1993 15.7159 10.2656C14.7178 10.3984 13.4713 10.53 12.4529 10.53C10.5237 10.53 7.623 10.0042 7.58223 9.99678ZM7.58223 9.99678C7.58229 9.99679 7.58235 9.9968 7.58241 9.99681L7.56417 10.0951M7.58223 9.99678C7.58216 9.99676 7.58209 9.99675 7.58204 9.99674L7.56417 10.0951M6.87268 10.8241C7.05389 10.9058 7.24978 10.9499 7.44848 10.9537C7.82325 11.021 10.5324 11.4952 12.4528 11.4952C14.4763 11.4952 17.2282 11.0202 17.6038 10.9536C17.803 10.9494 17.9994 10.9047 18.1809 10.8223C18.3648 10.7387 18.5297 10.6182 18.6651 10.4683C18.8005 10.3183 18.9036 10.1421 18.968 9.95059C19.0323 9.75925 19.0566 9.55673 19.0393 9.35561C19.0393 9.35542 19.0393 9.35524 19.0393 9.35506L18.662 4.38339L18.662 4.38336C18.5978 3.54033 17.8606 2.86875 17.0166 2.86875H8.03618C7.19249 2.86875 6.45496 3.54032 6.39099 4.38339L6.39099 4.38339L6.01373 9.36039C6.01372 9.36055 6.0137 9.36072 6.01369 9.36089C5.99652 9.56175 6.0209 9.76399 6.08532 9.95502C6.1498 10.1462 6.25299 10.322 6.38846 10.4716C6.52393 10.6211 6.68876 10.7411 6.87268 10.8241Z" fill="#C1C1C1" stroke="#C1C1C1" stroke-width="0.2"/>
<mask id="path-2-outside-1_340_376" maskUnits="userSpaceOnUse" x="0" y="0" width="25" height="28" fill="black">
<rect fill="white" width="25" height="28"/>
<path d="M1.96231 6.45048L2.23619 7.91102C2.24914 7.98012 2.28087 8.04432 2.3279 8.09658L4.25436 9.12596C4.17484 10.0705 4.11764 10.9496 4.11764 11.6072C4.11715 12.3428 4.14619 13.8807 4.17545 15.2145C3.52133 16.5081 3.03811 20.7661 2.98402 21.2575C2.97815 21.3102 2.98363 21.3635 3.00009 21.4139C3.01655 21.4643 3.04361 21.5106 3.07945 21.5497C3.11562 21.5891 3.15974 21.6203 3.20888 21.6414C3.25803 21.6625 3.31108 21.6728 3.36454 21.6719H4.1592V23.8221C4.1592 24.3315 4.59556 24.7344 5.10497 24.7344H6.0025C6.51191 24.7344 6.94827 24.3315 6.94827 23.8221V22.2953C7.28288 22.513 7.63369 22.7048 7.99761 22.8689C8.96672 23.2952 9.99661 23.567 11.0498 23.6745V25.9977C11.0488 26.1184 11.0717 26.2382 11.1172 26.3501C11.1626 26.462 11.2297 26.5638 11.3146 26.6497C11.3996 26.7356 11.5006 26.8039 11.612 26.8506C11.7234 26.8973 11.8429 26.9215 11.9637 26.9219H13.089C13.2098 26.9215 13.3293 26.8973 13.4407 26.8506C13.5521 26.8039 13.6532 26.7356 13.7381 26.6497C13.823 26.5639 13.8901 26.462 13.9356 26.3501C13.9811 26.2382 14.0039 26.1184 14.003 25.9977V23.6721C15.0536 23.5572 16.0798 23.2791 17.0447 22.8477C17.4129 22.6802 17.7673 22.4839 18.1045 22.2606V23.8221C18.1045 24.3315 18.5445 24.7344 19.0539 24.7344H19.9514C20.4608 24.7344 20.8936 24.3315 20.8936 23.8221V21.6719H21.692C21.7455 21.673 21.7986 21.6628 21.8477 21.6417C21.8969 21.6207 21.9409 21.5893 21.977 21.5498C22.013 21.5104 22.0402 21.4636 22.0567 21.4127C22.0732 21.3619 22.0786 21.3081 22.0725 21.2549C22.0186 20.7646 21.5371 16.5238 20.8853 15.221C20.9181 13.9014 20.9509 12.3856 20.9506 11.6609C20.9506 10.9873 20.8913 10.0833 20.8096 9.11338L22.7248 8.09641C22.7719 8.0442 22.8036 7.98004 22.8165 7.91097L23.0904 6.45043C23.3682 6.39554 23.6175 6.24375 23.7938 6.02213C23.9701 5.80051 24.062 5.52348 24.053 5.24043C24.044 4.95738 23.9348 4.68673 23.7448 4.47674C23.5548 4.26674 23.2964 4.13107 23.0156 4.0939C22.7349 4.05674 22.4501 4.12051 22.212 4.27383C21.9739 4.42716 21.798 4.66007 21.7157 4.93103C21.6333 5.20199 21.65 5.49338 21.7625 5.75324C21.8751 6.01309 22.0763 6.22452 22.3303 6.3498L22.0838 7.66427L20.7162 8.07268C20.672 7.60067 20.6255 7.12697 20.5805 6.66913C20.4789 5.63433 20.3829 4.6569 20.3376 3.95198C20.2495 2.56789 19.0685 1.36706 17.7053 1.27519C17.4972 1.26102 17.2645 1.24445 17.0138 1.22657C15.6716 1.13125 13.8334 1 12.4257 1C11.0397 1 9.37803 1.1237 8.16468 1.2141C7.87265 1.23598 7.60233 1.25594 7.36198 1.27245C5.99955 1.36684 4.81841 2.56855 4.72899 3.95176C4.68382 4.65312 4.58784 5.6258 4.48624 6.65562C4.4403 7.12183 4.39272 7.60455 4.34755 8.08504L2.96889 7.66427L2.72241 6.3498C2.97613 6.22454 3.17711 6.01323 3.28952 5.75356C3.40193 5.49389 3.41845 5.20273 3.33614 4.93201C3.25384 4.66129 3.07805 4.4286 2.84014 4.27544C2.60222 4.12227 2.31763 4.05859 2.03713 4.09574C1.75662 4.13289 1.49843 4.26846 1.30858 4.47828C1.11874 4.6881 1.0096 4.95853 1.0006 5.24135C0.991611 5.52416 1.08336 5.80097 1.25949 6.02243C1.43562 6.24389 1.68473 6.39559 1.96231 6.45048ZM22.8584 4.85033C22.9432 4.85032 23.0261 4.87545 23.0966 4.92255C23.1671 4.96966 23.2221 5.03661 23.2545 5.11494C23.287 5.19328 23.2955 5.27948 23.2789 5.36264C23.2624 5.44581 23.2216 5.5222 23.1616 5.58216C23.1017 5.64211 23.0253 5.68294 22.9421 5.69948C22.8589 5.71602 22.7727 5.70753 22.6944 5.67508C22.6161 5.64262 22.5491 5.58767 22.502 5.51716C22.4549 5.44665 22.4298 5.36376 22.4298 5.27897C22.4299 5.16533 22.4751 5.05638 22.5555 4.97602C22.6358 4.89566 22.7448 4.85046 22.8584 4.85033ZM4.25288 17.8391C4.36226 19.0164 4.75535 20.0312 5.41641 20.9062H3.79422C3.89025 20.1406 4.05409 18.9196 4.25288 17.8391ZM6.18264 23.8221C6.18264 23.9078 6.08825 23.9688 6.0025 23.9688H5.10497C5.01922 23.9688 4.92483 23.9078 4.92483 23.8221V21.6719H6.12626C6.13752 21.6719 6.12795 21.7022 6.18264 21.7123V23.8221ZM11.7759 19.1245C12.1271 19.1103 12.9517 19.1099 13.2654 19.1234C13.517 19.2546 13.8068 19.6567 14.0648 20.1211C14.0765 20.1507 14.0917 20.1787 14.1103 20.2044C14.2467 20.4575 14.3728 20.7251 14.4775 20.9749C14.1995 21.0827 13.9133 21.1677 13.6216 21.2291C13.5768 21.23 13.5325 21.2388 13.4908 21.2552C13.1663 21.3164 12.8369 21.3475 12.5068 21.3481C12.1872 21.3477 11.8683 21.3177 11.5543 21.2583C11.5174 21.2448 11.4786 21.2371 11.4394 21.2355C11.148 21.1747 10.8624 21.0885 10.5859 20.9781C10.8915 20.23 11.3927 19.3029 11.7759 19.1245ZM13.089 26.1562H11.9637C11.9435 26.1557 11.9236 26.1512 11.9051 26.1429C11.8867 26.1346 11.8701 26.1228 11.8563 26.108C11.8425 26.0932 11.8318 26.0759 11.8248 26.0569C11.8178 26.038 11.8146 26.0178 11.8155 25.9977V22.0718C12.2878 22.1292 12.7654 22.1278 13.2373 22.0675V25.9977C13.2382 26.0178 13.235 26.038 13.228 26.057C13.2209 26.0759 13.2102 26.0933 13.1964 26.108C13.1826 26.1228 13.166 26.1347 13.1476 26.1429C13.1291 26.1512 13.1092 26.1557 13.089 26.1562ZM20.128 23.8221C20.128 23.9078 20.0372 23.9688 19.9514 23.9688H19.0539C18.9681 23.9688 18.8701 23.9078 18.8701 23.8221V21.6719H20.128V23.8221ZM19.6043 20.9062C20.2804 20.0312 20.6852 19.0047 20.8001 17.821C21.0004 18.9063 21.1655 20.1406 21.2621 20.9062H19.6043ZM5.49303 4.00103C5.55866 2.98652 6.42075 2.10513 7.4147 2.03627C7.65614 2.01987 7.92794 1.99941 8.2215 1.97759C9.42288 1.88812 11.0682 1.76562 12.4257 1.76562C13.8062 1.76562 15.6287 1.89545 16.9593 1.99028C17.2108 2.00822 17.4443 2.02484 17.6535 2.03906C18.6475 2.10605 19.5088 2.98603 19.5735 4.00092C19.6196 4.71886 19.7163 5.70252 19.8185 6.74394C19.99 8.49 20.1844 10.4691 20.1849 11.6618C20.1855 13.0692 20.062 17.4166 20.0548 17.5528C19.9184 19.6616 18.8069 21.2056 16.761 22.1416C15.6633 22.6439 14.5498 22.8322 14.003 22.9004V21.9245C14.7139 21.7543 15.1149 21.5287 15.1432 21.5136C15.225 21.4705 15.2887 21.3995 15.3225 21.3135C15.3563 21.2274 15.3581 21.1321 15.3274 21.0448C15.3192 21.0224 15.0967 20.4888 14.8233 19.9063L14.2662 18.7965C14.2674 18.7881 14.2671 18.7796 14.2678 18.7711C14.2841 18.5799 14.2605 18.3874 14.1983 18.2059C14.136 18.0244 14.0367 17.8579 13.9065 17.7169C13.7763 17.576 13.6181 17.4638 13.4421 17.3874C13.2661 17.311 13.076 17.2722 12.8842 17.2734H12.1689C11.9773 17.2722 11.7875 17.311 11.6117 17.3873C11.4358 17.4636 11.2779 17.5756 11.1478 17.7164C11.0177 17.8571 10.9184 18.0235 10.8562 18.2048C10.794 18.386 10.7703 18.5783 10.7865 18.7692C10.7871 18.7761 10.7878 18.7838 10.7887 18.7906L10.2019 19.9672C10.0265 20.3178 9.87208 20.6786 9.73952 21.0476C9.71025 21.1331 9.71201 21.2263 9.74448 21.3107C9.77695 21.3951 9.83807 21.4654 9.91714 21.5092C9.94448 21.5247 10.3387 21.7579 11.0496 21.9301V22.9035C10.0935 22.801 9.15901 22.5508 8.27963 22.1617C7.7759 21.9388 7.30226 21.6534 6.8699 21.3121C6.82655 21.2436 6.76274 21.1904 6.68752 21.1602C6.6453 21.1231 6.60324 21.0856 6.56256 21.0476C6.5456 21.0283 6.52677 21.0108 6.50634 20.9953C5.5848 20.1083 5.07899 18.9581 4.99817 17.5569C4.991 17.4082 4.88184 12.9836 4.88294 11.6078C4.88365 10.4251 5.07724 8.46249 5.24803 6.73087C5.35046 5.69432 5.44704 4.71536 5.49303 4.00103ZM2.19424 4.85033C2.27904 4.85031 2.36193 4.87543 2.43245 4.92253C2.50296 4.96962 2.55793 5.03657 2.59039 5.11491C2.62285 5.19324 2.63135 5.27944 2.61482 5.36261C2.59829 5.44578 2.55746 5.52217 2.4975 5.58214C2.43755 5.6421 2.36116 5.68294 2.27799 5.69948C2.19483 5.71602 2.10862 5.70753 2.03028 5.67508C1.95195 5.64263 1.88499 5.58767 1.83789 5.51717C1.79078 5.44666 1.76565 5.36376 1.76566 5.27897C1.76579 5.16534 1.81098 5.05639 1.89133 4.97604C1.97167 4.89568 2.08061 4.85047 2.19424 4.85033Z"/>
</mask>
<path d="M1.96231 6.45048L2.23619 7.91102C2.24914 7.98012 2.28087 8.04432 2.3279 8.09658L4.25436 9.12596C4.17484 10.0705 4.11764 10.9496 4.11764 11.6072C4.11715 12.3428 4.14619 13.8807 4.17545 15.2145C3.52133 16.5081 3.03811 20.7661 2.98402 21.2575C2.97815 21.3102 2.98363 21.3635 3.00009 21.4139C3.01655 21.4643 3.04361 21.5106 3.07945 21.5497C3.11562 21.5891 3.15974 21.6203 3.20888 21.6414C3.25803 21.6625 3.31108 21.6728 3.36454 21.6719H4.1592V23.8221C4.1592 24.3315 4.59556 24.7344 5.10497 24.7344H6.0025C6.51191 24.7344 6.94827 24.3315 6.94827 23.8221V22.2953C7.28288 22.513 7.63369 22.7048 7.99761 22.8689C8.96672 23.2952 9.99661 23.567 11.0498 23.6745V25.9977C11.0488 26.1184 11.0717 26.2382 11.1172 26.3501C11.1626 26.462 11.2297 26.5638 11.3146 26.6497C11.3996 26.7356 11.5006 26.8039 11.612 26.8506C11.7234 26.8973 11.8429 26.9215 11.9637 26.9219H13.089C13.2098 26.9215 13.3293 26.8973 13.4407 26.8506C13.5521 26.8039 13.6532 26.7356 13.7381 26.6497C13.823 26.5639 13.8901 26.462 13.9356 26.3501C13.9811 26.2382 14.0039 26.1184 14.003 25.9977V23.6721C15.0536 23.5572 16.0798 23.2791 17.0447 22.8477C17.4129 22.6802 17.7673 22.4839 18.1045 22.2606V23.8221C18.1045 24.3315 18.5445 24.7344 19.0539 24.7344H19.9514C20.4608 24.7344 20.8936 24.3315 20.8936 23.8221V21.6719H21.692C21.7455 21.673 21.7986 21.6628 21.8477 21.6417C21.8969 21.6207 21.9409 21.5893 21.977 21.5498C22.013 21.5104 22.0402 21.4636 22.0567 21.4127C22.0732 21.3619 22.0786 21.3081 22.0725 21.2549C22.0186 20.7646 21.5371 16.5238 20.8853 15.221C20.9181 13.9014 20.9509 12.3856 20.9506 11.6609C20.9506 10.9873 20.8913 10.0833 20.8096 9.11338L22.7248 8.09641C22.7719 8.0442 22.8036 7.98004 22.8165 7.91097L23.0904 6.45043C23.3682 6.39554 23.6175 6.24375 23.7938 6.02213C23.9701 5.80051 24.062 5.52348 24.053 5.24043C24.044 4.95738 23.9348 4.68673 23.7448 4.47674C23.5548 4.26674 23.2964 4.13107 23.0156 4.0939C22.7349 4.05674 22.4501 4.12051 22.212 4.27383C21.9739 4.42716 21.798 4.66007 21.7157 4.93103C21.6333 5.20199 21.65 5.49338 21.7625 5.75324C21.8751 6.01309 22.0763 6.22452 22.3303 6.3498L22.0838 7.66427L20.7162 8.07268C20.672 7.60067 20.6255 7.12697 20.5805 6.66913C20.4789 5.63433 20.3829 4.6569 20.3376 3.95198C20.2495 2.56789 19.0685 1.36706 17.7053 1.27519C17.4972 1.26102 17.2645 1.24445 17.0138 1.22657C15.6716 1.13125 13.8334 1 12.4257 1C11.0397 1 9.37803 1.1237 8.16468 1.2141C7.87265 1.23598 7.60233 1.25594 7.36198 1.27245C5.99955 1.36684 4.81841 2.56855 4.72899 3.95176C4.68382 4.65312 4.58784 5.6258 4.48624 6.65562C4.4403 7.12183 4.39272 7.60455 4.34755 8.08504L2.96889 7.66427L2.72241 6.3498C2.97613 6.22454 3.17711 6.01323 3.28952 5.75356C3.40193 5.49389 3.41845 5.20273 3.33614 4.93201C3.25384 4.66129 3.07805 4.4286 2.84014 4.27544C2.60222 4.12227 2.31763 4.05859 2.03713 4.09574C1.75662 4.13289 1.49843 4.26846 1.30858 4.47828C1.11874 4.6881 1.0096 4.95853 1.0006 5.24135C0.991611 5.52416 1.08336 5.80097 1.25949 6.02243C1.43562 6.24389 1.68473 6.39559 1.96231 6.45048ZM22.8584 4.85033C22.9432 4.85032 23.0261 4.87545 23.0966 4.92255C23.1671 4.96966 23.2221 5.03661 23.2545 5.11494C23.287 5.19328 23.2955 5.27948 23.2789 5.36264C23.2624 5.44581 23.2216 5.5222 23.1616 5.58216C23.1017 5.64211 23.0253 5.68294 22.9421 5.69948C22.8589 5.71602 22.7727 5.70753 22.6944 5.67508C22.6161 5.64262 22.5491 5.58767 22.502 5.51716C22.4549 5.44665 22.4298 5.36376 22.4298 5.27897C22.4299 5.16533 22.4751 5.05638 22.5555 4.97602C22.6358 4.89566 22.7448 4.85046 22.8584 4.85033ZM4.25288 17.8391C4.36226 19.0164 4.75535 20.0312 5.41641 20.9062H3.79422C3.89025 20.1406 4.05409 18.9196 4.25288 17.8391ZM6.18264 23.8221C6.18264 23.9078 6.08825 23.9688 6.0025 23.9688H5.10497C5.01922 23.9688 4.92483 23.9078 4.92483 23.8221V21.6719H6.12626C6.13752 21.6719 6.12795 21.7022 6.18264 21.7123V23.8221ZM11.7759 19.1245C12.1271 19.1103 12.9517 19.1099 13.2654 19.1234C13.517 19.2546 13.8068 19.6567 14.0648 20.1211C14.0765 20.1507 14.0917 20.1787 14.1103 20.2044C14.2467 20.4575 14.3728 20.7251 14.4775 20.9749C14.1995 21.0827 13.9133 21.1677 13.6216 21.2291C13.5768 21.23 13.5325 21.2388 13.4908 21.2552C13.1663 21.3164 12.8369 21.3475 12.5068 21.3481C12.1872 21.3477 11.8683 21.3177 11.5543 21.2583C11.5174 21.2448 11.4786 21.2371 11.4394 21.2355C11.148 21.1747 10.8624 21.0885 10.5859 20.9781C10.8915 20.23 11.3927 19.3029 11.7759 19.1245ZM13.089 26.1562H11.9637C11.9435 26.1557 11.9236 26.1512 11.9051 26.1429C11.8867 26.1346 11.8701 26.1228 11.8563 26.108C11.8425 26.0932 11.8318 26.0759 11.8248 26.0569C11.8178 26.038 11.8146 26.0178 11.8155 25.9977V22.0718C12.2878 22.1292 12.7654 22.1278 13.2373 22.0675V25.9977C13.2382 26.0178 13.235 26.038 13.228 26.057C13.2209 26.0759 13.2102 26.0933 13.1964 26.108C13.1826 26.1228 13.166 26.1347 13.1476 26.1429C13.1291 26.1512 13.1092 26.1557 13.089 26.1562ZM20.128 23.8221C20.128 23.9078 20.0372 23.9688 19.9514 23.9688H19.0539C18.9681 23.9688 18.8701 23.9078 18.8701 23.8221V21.6719H20.128V23.8221ZM19.6043 20.9062C20.2804 20.0312 20.6852 19.0047 20.8001 17.821C21.0004 18.9063 21.1655 20.1406 21.2621 20.9062H19.6043ZM5.49303 4.00103C5.55866 2.98652 6.42075 2.10513 7.4147 2.03627C7.65614 2.01987 7.92794 1.99941 8.2215 1.97759C9.42288 1.88812 11.0682 1.76562 12.4257 1.76562C13.8062 1.76562 15.6287 1.89545 16.9593 1.99028C17.2108 2.00822 17.4443 2.02484 17.6535 2.03906C18.6475 2.10605 19.5088 2.98603 19.5735 4.00092C19.6196 4.71886 19.7163 5.70252 19.8185 6.74394C19.99 8.49 20.1844 10.4691 20.1849 11.6618C20.1855 13.0692 20.062 17.4166 20.0548 17.5528C19.9184 19.6616 18.8069 21.2056 16.761 22.1416C15.6633 22.6439 14.5498 22.8322 14.003 22.9004V21.9245C14.7139 21.7543 15.1149 21.5287 15.1432 21.5136C15.225 21.4705 15.2887 21.3995 15.3225 21.3135C15.3563 21.2274 15.3581 21.1321 15.3274 21.0448C15.3192 21.0224 15.0967 20.4888 14.8233 19.9063L14.2662 18.7965C14.2674 18.7881 14.2671 18.7796 14.2678 18.7711C14.2841 18.5799 14.2605 18.3874 14.1983 18.2059C14.136 18.0244 14.0367 17.8579 13.9065 17.7169C13.7763 17.576 13.6181 17.4638 13.4421 17.3874C13.2661 17.311 13.076 17.2722 12.8842 17.2734H12.1689C11.9773 17.2722 11.7875 17.311 11.6117 17.3873C11.4358 17.4636 11.2779 17.5756 11.1478 17.7164C11.0177 17.8571 10.9184 18.0235 10.8562 18.2048C10.794 18.386 10.7703 18.5783 10.7865 18.7692C10.7871 18.7761 10.7878 18.7838 10.7887 18.7906L10.2019 19.9672C10.0265 20.3178 9.87208 20.6786 9.73952 21.0476C9.71025 21.1331 9.71201 21.2263 9.74448 21.3107C9.77695 21.3951 9.83807 21.4654 9.91714 21.5092C9.94448 21.5247 10.3387 21.7579 11.0496 21.9301V22.9035C10.0935 22.801 9.15901 22.5508 8.27963 22.1617C7.7759 21.9388 7.30226 21.6534 6.8699 21.3121C6.82655 21.2436 6.76274 21.1904 6.68752 21.1602C6.6453 21.1231 6.60324 21.0856 6.56256 21.0476C6.5456 21.0283 6.52677 21.0108 6.50634 20.9953C5.5848 20.1083 5.07899 18.9581 4.99817 17.5569C4.991 17.4082 4.88184 12.9836 4.88294 11.6078C4.88365 10.4251 5.07724 8.46249 5.24803 6.73087C5.35046 5.69432 5.44704 4.71536 5.49303 4.00103ZM2.19424 4.85033C2.27904 4.85031 2.36193 4.87543 2.43245 4.92253C2.50296 4.96962 2.55793 5.03657 2.59039 5.11491C2.62285 5.19324 2.63135 5.27944 2.61482 5.36261C2.59829 5.44578 2.55746 5.52217 2.4975 5.58214C2.43755 5.6421 2.36116 5.68294 2.27799 5.69948C2.19483 5.71602 2.10862 5.70753 2.03028 5.67508C1.95195 5.64263 1.88499 5.58767 1.83789 5.51717C1.79078 5.44666 1.76565 5.36376 1.76566 5.27897C1.76579 5.16534 1.81098 5.05639 1.89133 4.97604C1.97167 4.89568 2.08061 4.85047 2.19424 4.85033Z" fill="#C1C1C1"/>
<path d="M1.96231 6.45048L2.23619 7.91102C2.24914 7.98012 2.28087 8.04432 2.3279 8.09658L4.25436 9.12596C4.17484 10.0705 4.11764 10.9496 4.11764 11.6072C4.11715 12.3428 4.14619 13.8807 4.17545 15.2145C3.52133 16.5081 3.03811 20.7661 2.98402 21.2575C2.97815 21.3102 2.98363 21.3635 3.00009 21.4139C3.01655 21.4643 3.04361 21.5106 3.07945 21.5497C3.11562 21.5891 3.15974 21.6203 3.20888 21.6414C3.25803 21.6625 3.31108 21.6728 3.36454 21.6719H4.1592V23.8221C4.1592 24.3315 4.59556 24.7344 5.10497 24.7344H6.0025C6.51191 24.7344 6.94827 24.3315 6.94827 23.8221V22.2953C7.28288 22.513 7.63369 22.7048 7.99761 22.8689C8.96672 23.2952 9.99661 23.567 11.0498 23.6745V25.9977C11.0488 26.1184 11.0717 26.2382 11.1172 26.3501C11.1626 26.462 11.2297 26.5638 11.3146 26.6497C11.3996 26.7356 11.5006 26.8039 11.612 26.8506C11.7234 26.8973 11.8429 26.9215 11.9637 26.9219H13.089C13.2098 26.9215 13.3293 26.8973 13.4407 26.8506C13.5521 26.8039 13.6532 26.7356 13.7381 26.6497C13.823 26.5639 13.8901 26.462 13.9356 26.3501C13.9811 26.2382 14.0039 26.1184 14.003 25.9977V23.6721C15.0536 23.5572 16.0798 23.2791 17.0447 22.8477C17.4129 22.6802 17.7673 22.4839 18.1045 22.2606V23.8221C18.1045 24.3315 18.5445 24.7344 19.0539 24.7344H19.9514C20.4608 24.7344 20.8936 24.3315 20.8936 23.8221V21.6719H21.692C21.7455 21.673 21.7986 21.6628 21.8477 21.6417C21.8969 21.6207 21.9409 21.5893 21.977 21.5498C22.013 21.5104 22.0402 21.4636 22.0567 21.4127C22.0732 21.3619 22.0786 21.3081 22.0725 21.2549C22.0186 20.7646 21.5371 16.5238 20.8853 15.221C20.9181 13.9014 20.9509 12.3856 20.9506 11.6609C20.9506 10.9873 20.8913 10.0833 20.8096 9.11338L22.7248 8.09641C22.7719 8.0442 22.8036 7.98004 22.8165 7.91097L23.0904 6.45043C23.3682 6.39554 23.6175 6.24375 23.7938 6.02213C23.9701 5.80051 24.062 5.52348 24.053 5.24043C24.044 4.95738 23.9348 4.68673 23.7448 4.47674C23.5548 4.26674 23.2964 4.13107 23.0156 4.0939C22.7349 4.05674 22.4501 4.12051 22.212 4.27383C21.9739 4.42716 21.798 4.66007 21.7157 4.93103C21.6333 5.20199 21.65 5.49338 21.7625 5.75324C21.8751 6.01309 22.0763 6.22452 22.3303 6.3498L22.0838 7.66427L20.7162 8.07268C20.672 7.60067 20.6255 7.12697 20.5805 6.66913C20.4789 5.63433 20.3829 4.6569 20.3376 3.95198C20.2495 2.56789 19.0685 1.36706 17.7053 1.27519C17.4972 1.26102 17.2645 1.24445 17.0138 1.22657C15.6716 1.13125 13.8334 1 12.4257 1C11.0397 1 9.37803 1.1237 8.16468 1.2141C7.87265 1.23598 7.60233 1.25594 7.36198 1.27245C5.99955 1.36684 4.81841 2.56855 4.72899 3.95176C4.68382 4.65312 4.58784 5.6258 4.48624 6.65562C4.4403 7.12183 4.39272 7.60455 4.34755 8.08504L2.96889 7.66427L2.72241 6.3498C2.97613 6.22454 3.17711 6.01323 3.28952 5.75356C3.40193 5.49389 3.41845 5.20273 3.33614 4.93201C3.25384 4.66129 3.07805 4.4286 2.84014 4.27544C2.60222 4.12227 2.31763 4.05859 2.03713 4.09574C1.75662 4.13289 1.49843 4.26846 1.30858 4.47828C1.11874 4.6881 1.0096 4.95853 1.0006 5.24135C0.991611 5.52416 1.08336 5.80097 1.25949 6.02243C1.43562 6.24389 1.68473 6.39559 1.96231 6.45048ZM22.8584 4.85033C22.9432 4.85032 23.0261 4.87545 23.0966 4.92255C23.1671 4.96966 23.2221 5.03661 23.2545 5.11494C23.287 5.19328 23.2955 5.27948 23.2789 5.36264C23.2624 5.44581 23.2216 5.5222 23.1616 5.58216C23.1017 5.64211 23.0253 5.68294 22.9421 5.69948C22.8589 5.71602 22.7727 5.70753 22.6944 5.67508C22.6161 5.64262 22.5491 5.58767 22.502 5.51716C22.4549 5.44665 22.4298 5.36376 22.4298 5.27897C22.4299 5.16533 22.4751 5.05638 22.5555 4.97602C22.6358 4.89566 22.7448 4.85046 22.8584 4.85033ZM4.25288 17.8391C4.36226 19.0164 4.75535 20.0312 5.41641 20.9062H3.79422C3.89025 20.1406 4.05409 18.9196 4.25288 17.8391ZM6.18264 23.8221C6.18264 23.9078 6.08825 23.9688 6.0025 23.9688H5.10497C5.01922 23.9688 4.92483 23.9078 4.92483 23.8221V21.6719H6.12626C6.13752 21.6719 6.12795 21.7022 6.18264 21.7123V23.8221ZM11.7759 19.1245C12.1271 19.1103 12.9517 19.1099 13.2654 19.1234C13.517 19.2546 13.8068 19.6567 14.0648 20.1211C14.0765 20.1507 14.0917 20.1787 14.1103 20.2044C14.2467 20.4575 14.3728 20.7251 14.4775 20.9749C14.1995 21.0827 13.9133 21.1677 13.6216 21.2291C13.5768 21.23 13.5325 21.2388 13.4908 21.2552C13.1663 21.3164 12.8369 21.3475 12.5068 21.3481C12.1872 21.3477 11.8683 21.3177 11.5543 21.2583C11.5174 21.2448 11.4786 21.2371 11.4394 21.2355C11.148 21.1747 10.8624 21.0885 10.5859 20.9781C10.8915 20.23 11.3927 19.3029 11.7759 19.1245ZM13.089 26.1562H11.9637C11.9435 26.1557 11.9236 26.1512 11.9051 26.1429C11.8867 26.1346 11.8701 26.1228 11.8563 26.108C11.8425 26.0932 11.8318 26.0759 11.8248 26.0569C11.8178 26.038 11.8146 26.0178 11.8155 25.9977V22.0718C12.2878 22.1292 12.7654 22.1278 13.2373 22.0675V25.9977C13.2382 26.0178 13.235 26.038 13.228 26.057C13.2209 26.0759 13.2102 26.0933 13.1964 26.108C13.1826 26.1228 13.166 26.1347 13.1476 26.1429C13.1291 26.1512 13.1092 26.1557 13.089 26.1562ZM20.128 23.8221C20.128 23.9078 20.0372 23.9688 19.9514 23.9688H19.0539C18.9681 23.9688 18.8701 23.9078 18.8701 23.8221V21.6719H20.128V23.8221ZM19.6043 20.9062C20.2804 20.0312 20.6852 19.0047 20.8001 17.821C21.0004 18.9063 21.1655 20.1406 21.2621 20.9062H19.6043ZM5.49303 4.00103C5.55866 2.98652 6.42075 2.10513 7.4147 2.03627C7.65614 2.01987 7.92794 1.99941 8.2215 1.97759C9.42288 1.88812 11.0682 1.76562 12.4257 1.76562C13.8062 1.76562 15.6287 1.89545 16.9593 1.99028C17.2108 2.00822 17.4443 2.02484 17.6535 2.03906C18.6475 2.10605 19.5088 2.98603 19.5735 4.00092C19.6196 4.71886 19.7163 5.70252 19.8185 6.74394C19.99 8.49 20.1844 10.4691 20.1849 11.6618C20.1855 13.0692 20.062 17.4166 20.0548 17.5528C19.9184 19.6616 18.8069 21.2056 16.761 22.1416C15.6633 22.6439 14.5498 22.8322 14.003 22.9004V21.9245C14.7139 21.7543 15.1149 21.5287 15.1432 21.5136C15.225 21.4705 15.2887 21.3995 15.3225 21.3135C15.3563 21.2274 15.3581 21.1321 15.3274 21.0448C15.3192 21.0224 15.0967 20.4888 14.8233 19.9063L14.2662 18.7965C14.2674 18.7881 14.2671 18.7796 14.2678 18.7711C14.2841 18.5799 14.2605 18.3874 14.1983 18.2059C14.136 18.0244 14.0367 17.8579 13.9065 17.7169C13.7763 17.576 13.6181 17.4638 13.4421 17.3874C13.2661 17.311 13.076 17.2722 12.8842 17.2734H12.1689C11.9773 17.2722 11.7875 17.311 11.6117 17.3873C11.4358 17.4636 11.2779 17.5756 11.1478 17.7164C11.0177 17.8571 10.9184 18.0235 10.8562 18.2048C10.794 18.386 10.7703 18.5783 10.7865 18.7692C10.7871 18.7761 10.7878 18.7838 10.7887 18.7906L10.2019 19.9672C10.0265 20.3178 9.87208 20.6786 9.73952 21.0476C9.71025 21.1331 9.71201 21.2263 9.74448 21.3107C9.77695 21.3951 9.83807 21.4654 9.91714 21.5092C9.94448 21.5247 10.3387 21.7579 11.0496 21.9301V22.9035C10.0935 22.801 9.15901 22.5508 8.27963 22.1617C7.7759 21.9388 7.30226 21.6534 6.8699 21.3121C6.82655 21.2436 6.76274 21.1904 6.68752 21.1602C6.6453 21.1231 6.60324 21.0856 6.56256 21.0476C6.5456 21.0283 6.52677 21.0108 6.50634 20.9953C5.5848 20.1083 5.07899 18.9581 4.99817 17.5569C4.991 17.4082 4.88184 12.9836 4.88294 11.6078C4.88365 10.4251 5.07724 8.46249 5.24803 6.73087C5.35046 5.69432 5.44704 4.71536 5.49303 4.00103ZM2.19424 4.85033C2.27904 4.85031 2.36193 4.87543 2.43245 4.92253C2.50296 4.96962 2.55793 5.03657 2.59039 5.11491C2.62285 5.19324 2.63135 5.27944 2.61482 5.36261C2.59829 5.44578 2.55746 5.52217 2.4975 5.58214C2.43755 5.6421 2.36116 5.68294 2.27799 5.69948C2.19483 5.71602 2.10862 5.70753 2.03028 5.67508C1.95195 5.64263 1.88499 5.58767 1.83789 5.51717C1.79078 5.44666 1.76565 5.36376 1.76566 5.27897C1.76579 5.16534 1.81098 5.05639 1.89133 4.97604C1.97167 4.89568 2.08061 4.85047 2.19424 4.85033Z" stroke="#C1C1C1" stroke-width="0.4" mask="url(#path-2-outside-1_340_376)"/>
<path d="M7.5264 14.9609C7.72418 14.9609 7.91752 14.9023 8.08197 14.7924C8.24642 14.6825 8.37459 14.5263 8.45028 14.3436C8.52596 14.1609 8.54577 13.9598 8.50718 13.7658C8.4686 13.5719 8.37336 13.3937 8.2335 13.2538C8.09365 13.114 7.91547 13.0187 7.72149 12.9802C7.52751 12.9416 7.32644 12.9614 7.14371 13.0371C6.96099 13.1127 6.80481 13.2409 6.69493 13.4054C6.58505 13.5698 6.5264 13.7632 6.5264 13.9609C6.52669 14.2261 6.63215 14.4802 6.81962 14.6677C7.00709 14.8552 7.26127 14.9606 7.5264 14.9609Z" fill="#C1C1C1"/>
<path d="M16.5264 13.9609C16.5264 14.1587 16.585 14.3521 16.6949 14.5165C16.8048 14.681 16.961 14.8091 17.1437 14.8848C17.3264 14.9605 17.5275 14.9803 17.7215 14.9417C17.9155 14.9031 18.0937 14.8079 18.2335 14.668C18.3734 14.5282 18.4686 14.35 18.5072 14.156C18.5458 13.962 18.526 13.761 18.4503 13.5783C18.3746 13.3955 18.2464 13.2393 18.082 13.1295C17.9175 13.0196 17.7242 12.9609 17.5264 12.9609C17.2613 12.9612 17.0071 13.0667 16.8196 13.2542C16.6321 13.4416 16.5267 13.6958 16.5264 13.9609Z" fill="#C1C1C1"/>
<path d="M14.0795 12.9375H10.9733C10.7139 12.9375 10.503 13.1654 10.503 13.4369V14.6947C10.5017 14.7575 10.513 14.8199 10.536 14.8783C10.559 14.9368 10.5934 14.9901 10.6371 15.0351C10.6808 15.0802 10.733 15.1162 10.7907 15.141C10.8484 15.1658 10.9105 15.179 10.9733 15.1797H14.0795C14.1423 15.179 14.2044 15.1658 14.2621 15.141C14.3198 15.1162 14.372 15.0802 14.4157 15.0351C14.4594 14.9901 14.4938 14.9368 14.5168 14.8783C14.5398 14.8199 14.5511 14.7575 14.5498 14.6947V13.4369C14.5498 13.1654 14.3389 12.9375 14.0795 12.9375ZM13.7842 14.4141H11.2686V13.7031H13.7842V14.4141Z" fill="#C1C1C1" stroke="#C1C1C1" stroke-width="0.2"/>
</svg>
