<svg width="28" height="28" viewBox="0 0 28 28" fill="none" xmlns="http://www.w3.org/2000/svg">
<path d="M18.4896 10.0955C18.5121 10.0916 18.5349 10.0898 18.5577 10.09C18.6434 10.0923 18.7286 10.0763 18.8077 10.0431C18.8868 10.01 18.9579 9.96042 19.0164 9.89772C19.0749 9.83502 19.1194 9.76061 19.147 9.67941C19.1745 9.59822 19.1845 9.5121 19.1763 9.42674L18.4896 10.0955ZM18.4896 10.0955C18.46 10.1009 15.5034 10.63 13.4529 10.63C11.5097 10.63 8.59337 10.1004 8.56417 10.0951M18.4896 10.0955L8.56417 10.0951M8.58223 9.99678C8.55355 9.99147 8.52444 9.98879 8.49527 9.98876L8.49302 9.98881C8.42119 9.99043 8.34984 9.97678 8.28367 9.94878C8.21751 9.92077 8.15804 9.87905 8.10919 9.82637C8.06034 9.77368 8.02322 9.71124 8.00029 9.64315C7.97736 9.57506 7.96913 9.50288 7.97616 9.43138L7.98078 9.38429L7.97972 9.38323L8.3538 4.45791C8.37203 4.28868 8.45143 4.13191 8.57712 4.01709C8.70297 3.9021 8.86652 3.83712 9.03695 3.83438H18.0159C18.1863 3.83711 18.3499 3.90209 18.4757 4.01707C18.6014 4.1319 18.6808 4.28867 18.6991 4.45791L19.0766 9.43431L19.0766 9.43431L19.0768 9.43632C19.0836 9.50757 19.0753 9.57947 19.0523 9.64726C19.0292 9.71504 18.9921 9.77716 18.9433 9.82951C18.8944 9.88186 18.835 9.92324 18.769 9.95091C18.703 9.97858 18.6319 9.99191 18.5603 9.99001L18.5586 9.99C18.5298 9.98974 18.5011 9.99204 18.4728 9.99689L18.4715 9.99712L18.4712 9.99716L18.4706 9.99728L18.4684 9.99767L18.4609 9.99902L18.4334 10.0039L18.3319 10.0214C18.2446 10.0364 18.1189 10.0574 17.9626 10.0826C17.6499 10.1328 17.2144 10.1993 16.7159 10.2656C15.7178 10.3984 14.4713 10.53 13.4529 10.53C11.5237 10.53 8.623 10.0042 8.58223 9.99678ZM8.58223 9.99678C8.58229 9.99679 8.58235 9.9968 8.58241 9.99681L8.56417 10.0951M8.58223 9.99678C8.58216 9.99676 8.58209 9.99675 8.58204 9.99674L8.56417 10.0951M7.87268 10.8241C8.05389 10.9058 8.24978 10.9499 8.44848 10.9537C8.82325 11.021 11.5324 11.4952 13.4528 11.4952C15.4763 11.4952 18.2282 11.0202 18.6038 10.9536C18.803 10.9494 18.9994 10.9047 19.1809 10.8223C19.3648 10.7387 19.5297 10.6182 19.6651 10.4683C19.8005 10.3183 19.9036 10.1421 19.968 9.95059C20.0323 9.75925 20.0566 9.55673 20.0393 9.35561C20.0393 9.35542 20.0393 9.35524 20.0393 9.35506L19.662 4.38339L19.662 4.38336C19.5978 3.54033 18.8606 2.86875 18.0166 2.86875H9.03618C8.19249 2.86875 7.45496 3.54032 7.39099 4.38339L7.39099 4.38339L7.01373 9.36039C7.01372 9.36055 7.0137 9.36072 7.01369 9.36089C6.99652 9.56175 7.0209 9.76399 7.08532 9.95502C7.1498 10.1462 7.25299 10.322 7.38846 10.4716C7.52393 10.6211 7.68876 10.7411 7.87268 10.8241Z" fill="#4E4BC9" stroke="#4E4BC9" stroke-width="0.2"/>
<mask id="path-2-outside-1_340_365" maskUnits="userSpaceOnUse" x="1" y="0" width="25" height="28" fill="black">
<rect fill="white" x="1" width="25" height="28"/>
<path d="M2.96231 6.45048L3.23619 7.91102C3.24914 7.98012 3.28087 8.04432 3.3279 8.09658L5.25436 9.12596C5.17484 10.0705 5.11764 10.9496 5.11764 11.6072C5.11715 12.3428 5.14619 13.8807 5.17545 15.2145C4.52133 16.5081 4.03811 20.7661 3.98402 21.2575C3.97815 21.3102 3.98363 21.3635 4.00009 21.4139C4.01655 21.4643 4.04361 21.5106 4.07945 21.5497C4.11562 21.5891 4.15974 21.6203 4.20888 21.6414C4.25803 21.6625 4.31108 21.6728 4.36454 21.6719H5.1592V23.8221C5.1592 24.3315 5.59556 24.7344 6.10497 24.7344H7.0025C7.51191 24.7344 7.94827 24.3315 7.94827 23.8221V22.2953C8.28288 22.513 8.63369 22.7048 8.99761 22.8689C9.96672 23.2952 10.9966 23.567 12.0498 23.6745V25.9977C12.0488 26.1184 12.0717 26.2382 12.1172 26.3501C12.1626 26.462 12.2297 26.5638 12.3146 26.6497C12.3996 26.7356 12.5006 26.8039 12.612 26.8506C12.7234 26.8973 12.8429 26.9215 12.9637 26.9219H14.089C14.2098 26.9215 14.3293 26.8973 14.4407 26.8506C14.5521 26.8039 14.6532 26.7356 14.7381 26.6497C14.823 26.5639 14.8901 26.462 14.9356 26.3501C14.9811 26.2382 15.0039 26.1184 15.003 25.9977V23.6721C16.0536 23.5572 17.0798 23.2791 18.0447 22.8477C18.4129 22.6802 18.7673 22.4839 19.1045 22.2606V23.8221C19.1045 24.3315 19.5445 24.7344 20.0539 24.7344H20.9514C21.4608 24.7344 21.8936 24.3315 21.8936 23.8221V21.6719H22.692C22.7455 21.673 22.7986 21.6628 22.8477 21.6417C22.8969 21.6207 22.9409 21.5893 22.977 21.5498C23.013 21.5104 23.0402 21.4636 23.0567 21.4127C23.0732 21.3619 23.0786 21.3081 23.0725 21.2549C23.0186 20.7646 22.5371 16.5238 21.8853 15.221C21.9181 13.9014 21.9509 12.3856 21.9506 11.6609C21.9506 10.9873 21.8913 10.0833 21.8096 9.11338L23.7248 8.09641C23.7719 8.0442 23.8036 7.98004 23.8165 7.91097L24.0904 6.45043C24.3682 6.39554 24.6175 6.24375 24.7938 6.02213C24.9701 5.80051 25.062 5.52348 25.053 5.24043C25.044 4.95738 24.9348 4.68673 24.7448 4.47674C24.5548 4.26674 24.2964 4.13107 24.0156 4.0939C23.7349 4.05674 23.4501 4.12051 23.212 4.27383C22.9739 4.42716 22.798 4.66007 22.7157 4.93103C22.6333 5.20199 22.65 5.49338 22.7625 5.75324C22.8751 6.01309 23.0763 6.22452 23.3303 6.3498L23.0838 7.66427L21.7162 8.07268C21.672 7.60067 21.6255 7.12697 21.5805 6.66913C21.4789 5.63433 21.3829 4.6569 21.3376 3.95198C21.2495 2.56789 20.0685 1.36706 18.7053 1.27519C18.4972 1.26102 18.2645 1.24445 18.0138 1.22657C16.6716 1.13125 14.8334 1 13.4257 1C12.0397 1 10.378 1.1237 9.16468 1.2141C8.87265 1.23598 8.60233 1.25594 8.36198 1.27245C6.99955 1.36684 5.81841 2.56855 5.72899 3.95176C5.68382 4.65312 5.58784 5.6258 5.48624 6.65562C5.4403 7.12183 5.39272 7.60455 5.34755 8.08504L3.96889 7.66427L3.72241 6.3498C3.97613 6.22454 4.17711 6.01323 4.28952 5.75356C4.40193 5.49389 4.41845 5.20273 4.33614 4.93201C4.25384 4.66129 4.07805 4.4286 3.84014 4.27544C3.60222 4.12227 3.31763 4.05859 3.03713 4.09574C2.75662 4.13289 2.49843 4.26846 2.30858 4.47828C2.11874 4.6881 2.0096 4.95853 2.0006 5.24135C1.99161 5.52416 2.08336 5.80097 2.25949 6.02243C2.43562 6.24389 2.68473 6.39559 2.96231 6.45048ZM23.8584 4.85033C23.9432 4.85032 24.0261 4.87545 24.0966 4.92255C24.1671 4.96966 24.2221 5.03661 24.2545 5.11494C24.287 5.19328 24.2955 5.27948 24.2789 5.36264C24.2624 5.44581 24.2216 5.5222 24.1616 5.58216C24.1017 5.64211 24.0253 5.68294 23.9421 5.69948C23.8589 5.71602 23.7727 5.70753 23.6944 5.67508C23.6161 5.64262 23.5491 5.58767 23.502 5.51716C23.4549 5.44665 23.4298 5.36376 23.4298 5.27897C23.4299 5.16533 23.4751 5.05638 23.5555 4.97602C23.6358 4.89566 23.7448 4.85046 23.8584 4.85033ZM5.25288 17.8391C5.36226 19.0164 5.75535 20.0312 6.41641 20.9062H4.79422C4.89025 20.1406 5.05409 18.9196 5.25288 17.8391ZM7.18264 23.8221C7.18264 23.9078 7.08825 23.9688 7.0025 23.9688H6.10497C6.01922 23.9688 5.92483 23.9078 5.92483 23.8221V21.6719H7.12626C7.13752 21.6719 7.12795 21.7022 7.18264 21.7123V23.8221ZM12.7759 19.1245C13.1271 19.1103 13.9517 19.1099 14.2654 19.1234C14.517 19.2546 14.8068 19.6567 15.0648 20.1211C15.0765 20.1507 15.0917 20.1787 15.1103 20.2044C15.2467 20.4575 15.3728 20.7251 15.4775 20.9749C15.1995 21.0827 14.9133 21.1677 14.6216 21.2291C14.5768 21.23 14.5325 21.2388 14.4908 21.2552C14.1663 21.3164 13.8369 21.3475 13.5068 21.3481C13.1872 21.3477 12.8683 21.3177 12.5543 21.2583C12.5174 21.2448 12.4786 21.2371 12.4394 21.2355C12.148 21.1747 11.8624 21.0885 11.5859 20.9781C11.8915 20.23 12.3927 19.3029 12.7759 19.1245ZM14.089 26.1562H12.9637C12.9435 26.1557 12.9236 26.1512 12.9051 26.1429C12.8867 26.1346 12.8701 26.1228 12.8563 26.108C12.8425 26.0932 12.8318 26.0759 12.8248 26.0569C12.8178 26.038 12.8146 26.0178 12.8155 25.9977V22.0718C13.2878 22.1292 13.7654 22.1278 14.2373 22.0675V25.9977C14.2382 26.0178 14.235 26.038 14.228 26.057C14.2209 26.0759 14.2102 26.0933 14.1964 26.108C14.1826 26.1228 14.166 26.1347 14.1476 26.1429C14.1291 26.1512 14.1092 26.1557 14.089 26.1562ZM21.128 23.8221C21.128 23.9078 21.0372 23.9688 20.9514 23.9688H20.0539C19.9681 23.9688 19.8701 23.9078 19.8701 23.8221V21.6719H21.128V23.8221ZM20.6043 20.9062C21.2804 20.0312 21.6852 19.0047 21.8001 17.821C22.0004 18.9063 22.1655 20.1406 22.2621 20.9062H20.6043ZM6.49303 4.00103C6.55866 2.98652 7.42075 2.10513 8.4147 2.03627C8.65614 2.01987 8.92794 1.99941 9.2215 1.97759C10.4229 1.88812 12.0682 1.76562 13.4257 1.76562C14.8062 1.76562 16.6287 1.89545 17.9593 1.99028C18.2108 2.00822 18.4443 2.02484 18.6535 2.03906C19.6475 2.10605 20.5088 2.98603 20.5735 4.00092C20.6196 4.71886 20.7163 5.70252 20.8185 6.74394C20.99 8.49 21.1844 10.4691 21.1849 11.6618C21.1855 13.0692 21.062 17.4166 21.0548 17.5528C20.9184 19.6616 19.8069 21.2056 17.761 22.1416C16.6633 22.6439 15.5498 22.8322 15.003 22.9004V21.9245C15.7139 21.7543 16.1149 21.5287 16.1432 21.5136C16.225 21.4705 16.2887 21.3995 16.3225 21.3135C16.3563 21.2274 16.3581 21.1321 16.3274 21.0448C16.3192 21.0224 16.0967 20.4888 15.8233 19.9063L15.2662 18.7965C15.2674 18.7881 15.2671 18.7796 15.2678 18.7711C15.2841 18.5799 15.2605 18.3874 15.1983 18.2059C15.136 18.0244 15.0367 17.8579 14.9065 17.7169C14.7763 17.576 14.6181 17.4638 14.4421 17.3874C14.2661 17.311 14.076 17.2722 13.8842 17.2734H13.1689C12.9773 17.2722 12.7875 17.311 12.6117 17.3873C12.4358 17.4636 12.2779 17.5756 12.1478 17.7164C12.0177 17.8571 11.9184 18.0235 11.8562 18.2048C11.794 18.386 11.7703 18.5783 11.7865 18.7692C11.7871 18.7761 11.7878 18.7838 11.7887 18.7906L11.2019 19.9672C11.0265 20.3178 10.8721 20.6786 10.7395 21.0476C10.7103 21.1331 10.712 21.2263 10.7445 21.3107C10.777 21.3951 10.8381 21.4654 10.9171 21.5092C10.9445 21.5247 11.3387 21.7579 12.0496 21.9301V22.9035C11.0935 22.801 10.159 22.5508 9.27963 22.1617C8.7759 21.9388 8.30226 21.6534 7.8699 21.3121C7.82655 21.2436 7.76274 21.1904 7.68752 21.1602C7.6453 21.1231 7.60324 21.0856 7.56256 21.0476C7.5456 21.0283 7.52677 21.0108 7.50634 20.9953C6.5848 20.1083 6.07899 18.9581 5.99817 17.5569C5.991 17.4082 5.88184 12.9836 5.88294 11.6078C5.88365 10.4251 6.07724 8.46249 6.24803 6.73087C6.35046 5.69432 6.44704 4.71536 6.49303 4.00103ZM3.19424 4.85033C3.27904 4.85031 3.36193 4.87543 3.43245 4.92253C3.50296 4.96962 3.55793 5.03657 3.59039 5.11491C3.62285 5.19324 3.63135 5.27944 3.61482 5.36261C3.59829 5.44578 3.55746 5.52217 3.4975 5.58214C3.43755 5.6421 3.36116 5.68294 3.27799 5.69948C3.19483 5.71602 3.10862 5.70753 3.03028 5.67508C2.95195 5.64263 2.88499 5.58767 2.83789 5.51717C2.79078 5.44666 2.76565 5.36376 2.76566 5.27897C2.76579 5.16534 2.81098 5.05639 2.89133 4.97604C2.97167 4.89568 3.08061 4.85047 3.19424 4.85033Z"/>
</mask>
<path d="M2.96231 6.45048L3.23619 7.91102C3.24914 7.98012 3.28087 8.04432 3.3279 8.09658L5.25436 9.12596C5.17484 10.0705 5.11764 10.9496 5.11764 11.6072C5.11715 12.3428 5.14619 13.8807 5.17545 15.2145C4.52133 16.5081 4.03811 20.7661 3.98402 21.2575C3.97815 21.3102 3.98363 21.3635 4.00009 21.4139C4.01655 21.4643 4.04361 21.5106 4.07945 21.5497C4.11562 21.5891 4.15974 21.6203 4.20888 21.6414C4.25803 21.6625 4.31108 21.6728 4.36454 21.6719H5.1592V23.8221C5.1592 24.3315 5.59556 24.7344 6.10497 24.7344H7.0025C7.51191 24.7344 7.94827 24.3315 7.94827 23.8221V22.2953C8.28288 22.513 8.63369 22.7048 8.99761 22.8689C9.96672 23.2952 10.9966 23.567 12.0498 23.6745V25.9977C12.0488 26.1184 12.0717 26.2382 12.1172 26.3501C12.1626 26.462 12.2297 26.5638 12.3146 26.6497C12.3996 26.7356 12.5006 26.8039 12.612 26.8506C12.7234 26.8973 12.8429 26.9215 12.9637 26.9219H14.089C14.2098 26.9215 14.3293 26.8973 14.4407 26.8506C14.5521 26.8039 14.6532 26.7356 14.7381 26.6497C14.823 26.5639 14.8901 26.462 14.9356 26.3501C14.9811 26.2382 15.0039 26.1184 15.003 25.9977V23.6721C16.0536 23.5572 17.0798 23.2791 18.0447 22.8477C18.4129 22.6802 18.7673 22.4839 19.1045 22.2606V23.8221C19.1045 24.3315 19.5445 24.7344 20.0539 24.7344H20.9514C21.4608 24.7344 21.8936 24.3315 21.8936 23.8221V21.6719H22.692C22.7455 21.673 22.7986 21.6628 22.8477 21.6417C22.8969 21.6207 22.9409 21.5893 22.977 21.5498C23.013 21.5104 23.0402 21.4636 23.0567 21.4127C23.0732 21.3619 23.0786 21.3081 23.0725 21.2549C23.0186 20.7646 22.5371 16.5238 21.8853 15.221C21.9181 13.9014 21.9509 12.3856 21.9506 11.6609C21.9506 10.9873 21.8913 10.0833 21.8096 9.11338L23.7248 8.09641C23.7719 8.0442 23.8036 7.98004 23.8165 7.91097L24.0904 6.45043C24.3682 6.39554 24.6175 6.24375 24.7938 6.02213C24.9701 5.80051 25.062 5.52348 25.053 5.24043C25.044 4.95738 24.9348 4.68673 24.7448 4.47674C24.5548 4.26674 24.2964 4.13107 24.0156 4.0939C23.7349 4.05674 23.4501 4.12051 23.212 4.27383C22.9739 4.42716 22.798 4.66007 22.7157 4.93103C22.6333 5.20199 22.65 5.49338 22.7625 5.75324C22.8751 6.01309 23.0763 6.22452 23.3303 6.3498L23.0838 7.66427L21.7162 8.07268C21.672 7.60067 21.6255 7.12697 21.5805 6.66913C21.4789 5.63433 21.3829 4.6569 21.3376 3.95198C21.2495 2.56789 20.0685 1.36706 18.7053 1.27519C18.4972 1.26102 18.2645 1.24445 18.0138 1.22657C16.6716 1.13125 14.8334 1 13.4257 1C12.0397 1 10.378 1.1237 9.16468 1.2141C8.87265 1.23598 8.60233 1.25594 8.36198 1.27245C6.99955 1.36684 5.81841 2.56855 5.72899 3.95176C5.68382 4.65312 5.58784 5.6258 5.48624 6.65562C5.4403 7.12183 5.39272 7.60455 5.34755 8.08504L3.96889 7.66427L3.72241 6.3498C3.97613 6.22454 4.17711 6.01323 4.28952 5.75356C4.40193 5.49389 4.41845 5.20273 4.33614 4.93201C4.25384 4.66129 4.07805 4.4286 3.84014 4.27544C3.60222 4.12227 3.31763 4.05859 3.03713 4.09574C2.75662 4.13289 2.49843 4.26846 2.30858 4.47828C2.11874 4.6881 2.0096 4.95853 2.0006 5.24135C1.99161 5.52416 2.08336 5.80097 2.25949 6.02243C2.43562 6.24389 2.68473 6.39559 2.96231 6.45048ZM23.8584 4.85033C23.9432 4.85032 24.0261 4.87545 24.0966 4.92255C24.1671 4.96966 24.2221 5.03661 24.2545 5.11494C24.287 5.19328 24.2955 5.27948 24.2789 5.36264C24.2624 5.44581 24.2216 5.5222 24.1616 5.58216C24.1017 5.64211 24.0253 5.68294 23.9421 5.69948C23.8589 5.71602 23.7727 5.70753 23.6944 5.67508C23.6161 5.64262 23.5491 5.58767 23.502 5.51716C23.4549 5.44665 23.4298 5.36376 23.4298 5.27897C23.4299 5.16533 23.4751 5.05638 23.5555 4.97602C23.6358 4.89566 23.7448 4.85046 23.8584 4.85033ZM5.25288 17.8391C5.36226 19.0164 5.75535 20.0312 6.41641 20.9062H4.79422C4.89025 20.1406 5.05409 18.9196 5.25288 17.8391ZM7.18264 23.8221C7.18264 23.9078 7.08825 23.9688 7.0025 23.9688H6.10497C6.01922 23.9688 5.92483 23.9078 5.92483 23.8221V21.6719H7.12626C7.13752 21.6719 7.12795 21.7022 7.18264 21.7123V23.8221ZM12.7759 19.1245C13.1271 19.1103 13.9517 19.1099 14.2654 19.1234C14.517 19.2546 14.8068 19.6567 15.0648 20.1211C15.0765 20.1507 15.0917 20.1787 15.1103 20.2044C15.2467 20.4575 15.3728 20.7251 15.4775 20.9749C15.1995 21.0827 14.9133 21.1677 14.6216 21.2291C14.5768 21.23 14.5325 21.2388 14.4908 21.2552C14.1663 21.3164 13.8369 21.3475 13.5068 21.3481C13.1872 21.3477 12.8683 21.3177 12.5543 21.2583C12.5174 21.2448 12.4786 21.2371 12.4394 21.2355C12.148 21.1747 11.8624 21.0885 11.5859 20.9781C11.8915 20.23 12.3927 19.3029 12.7759 19.1245ZM14.089 26.1562H12.9637C12.9435 26.1557 12.9236 26.1512 12.9051 26.1429C12.8867 26.1346 12.8701 26.1228 12.8563 26.108C12.8425 26.0932 12.8318 26.0759 12.8248 26.0569C12.8178 26.038 12.8146 26.0178 12.8155 25.9977V22.0718C13.2878 22.1292 13.7654 22.1278 14.2373 22.0675V25.9977C14.2382 26.0178 14.235 26.038 14.228 26.057C14.2209 26.0759 14.2102 26.0933 14.1964 26.108C14.1826 26.1228 14.166 26.1347 14.1476 26.1429C14.1291 26.1512 14.1092 26.1557 14.089 26.1562ZM21.128 23.8221C21.128 23.9078 21.0372 23.9688 20.9514 23.9688H20.0539C19.9681 23.9688 19.8701 23.9078 19.8701 23.8221V21.6719H21.128V23.8221ZM20.6043 20.9062C21.2804 20.0312 21.6852 19.0047 21.8001 17.821C22.0004 18.9063 22.1655 20.1406 22.2621 20.9062H20.6043ZM6.49303 4.00103C6.55866 2.98652 7.42075 2.10513 8.4147 2.03627C8.65614 2.01987 8.92794 1.99941 9.2215 1.97759C10.4229 1.88812 12.0682 1.76562 13.4257 1.76562C14.8062 1.76562 16.6287 1.89545 17.9593 1.99028C18.2108 2.00822 18.4443 2.02484 18.6535 2.03906C19.6475 2.10605 20.5088 2.98603 20.5735 4.00092C20.6196 4.71886 20.7163 5.70252 20.8185 6.74394C20.99 8.49 21.1844 10.4691 21.1849 11.6618C21.1855 13.0692 21.062 17.4166 21.0548 17.5528C20.9184 19.6616 19.8069 21.2056 17.761 22.1416C16.6633 22.6439 15.5498 22.8322 15.003 22.9004V21.9245C15.7139 21.7543 16.1149 21.5287 16.1432 21.5136C16.225 21.4705 16.2887 21.3995 16.3225 21.3135C16.3563 21.2274 16.3581 21.1321 16.3274 21.0448C16.3192 21.0224 16.0967 20.4888 15.8233 19.9063L15.2662 18.7965C15.2674 18.7881 15.2671 18.7796 15.2678 18.7711C15.2841 18.5799 15.2605 18.3874 15.1983 18.2059C15.136 18.0244 15.0367 17.8579 14.9065 17.7169C14.7763 17.576 14.6181 17.4638 14.4421 17.3874C14.2661 17.311 14.076 17.2722 13.8842 17.2734H13.1689C12.9773 17.2722 12.7875 17.311 12.6117 17.3873C12.4358 17.4636 12.2779 17.5756 12.1478 17.7164C12.0177 17.8571 11.9184 18.0235 11.8562 18.2048C11.794 18.386 11.7703 18.5783 11.7865 18.7692C11.7871 18.7761 11.7878 18.7838 11.7887 18.7906L11.2019 19.9672C11.0265 20.3178 10.8721 20.6786 10.7395 21.0476C10.7103 21.1331 10.712 21.2263 10.7445 21.3107C10.777 21.3951 10.8381 21.4654 10.9171 21.5092C10.9445 21.5247 11.3387 21.7579 12.0496 21.9301V22.9035C11.0935 22.801 10.159 22.5508 9.27963 22.1617C8.7759 21.9388 8.30226 21.6534 7.8699 21.3121C7.82655 21.2436 7.76274 21.1904 7.68752 21.1602C7.6453 21.1231 7.60324 21.0856 7.56256 21.0476C7.5456 21.0283 7.52677 21.0108 7.50634 20.9953C6.5848 20.1083 6.07899 18.9581 5.99817 17.5569C5.991 17.4082 5.88184 12.9836 5.88294 11.6078C5.88365 10.4251 6.07724 8.46249 6.24803 6.73087C6.35046 5.69432 6.44704 4.71536 6.49303 4.00103ZM3.19424 4.85033C3.27904 4.85031 3.36193 4.87543 3.43245 4.92253C3.50296 4.96962 3.55793 5.03657 3.59039 5.11491C3.62285 5.19324 3.63135 5.27944 3.61482 5.36261C3.59829 5.44578 3.55746 5.52217 3.4975 5.58214C3.43755 5.6421 3.36116 5.68294 3.27799 5.69948C3.19483 5.71602 3.10862 5.70753 3.03028 5.67508C2.95195 5.64263 2.88499 5.58767 2.83789 5.51717C2.79078 5.44666 2.76565 5.36376 2.76566 5.27897C2.76579 5.16534 2.81098 5.05639 2.89133 4.97604C2.97167 4.89568 3.08061 4.85047 3.19424 4.85033Z" fill="#4E4BC9"/>
<path d="M2.96231 6.45048L3.23619 7.91102C3.24914 7.98012 3.28087 8.04432 3.3279 8.09658L5.25436 9.12596C5.17484 10.0705 5.11764 10.9496 5.11764 11.6072C5.11715 12.3428 5.14619 13.8807 5.17545 15.2145C4.52133 16.5081 4.03811 20.7661 3.98402 21.2575C3.97815 21.3102 3.98363 21.3635 4.00009 21.4139C4.01655 21.4643 4.04361 21.5106 4.07945 21.5497C4.11562 21.5891 4.15974 21.6203 4.20888 21.6414C4.25803 21.6625 4.31108 21.6728 4.36454 21.6719H5.1592V23.8221C5.1592 24.3315 5.59556 24.7344 6.10497 24.7344H7.0025C7.51191 24.7344 7.94827 24.3315 7.94827 23.8221V22.2953C8.28288 22.513 8.63369 22.7048 8.99761 22.8689C9.96672 23.2952 10.9966 23.567 12.0498 23.6745V25.9977C12.0488 26.1184 12.0717 26.2382 12.1172 26.3501C12.1626 26.462 12.2297 26.5638 12.3146 26.6497C12.3996 26.7356 12.5006 26.8039 12.612 26.8506C12.7234 26.8973 12.8429 26.9215 12.9637 26.9219H14.089C14.2098 26.9215 14.3293 26.8973 14.4407 26.8506C14.5521 26.8039 14.6532 26.7356 14.7381 26.6497C14.823 26.5639 14.8901 26.462 14.9356 26.3501C14.9811 26.2382 15.0039 26.1184 15.003 25.9977V23.6721C16.0536 23.5572 17.0798 23.2791 18.0447 22.8477C18.4129 22.6802 18.7673 22.4839 19.1045 22.2606V23.8221C19.1045 24.3315 19.5445 24.7344 20.0539 24.7344H20.9514C21.4608 24.7344 21.8936 24.3315 21.8936 23.8221V21.6719H22.692C22.7455 21.673 22.7986 21.6628 22.8477 21.6417C22.8969 21.6207 22.9409 21.5893 22.977 21.5498C23.013 21.5104 23.0402 21.4636 23.0567 21.4127C23.0732 21.3619 23.0786 21.3081 23.0725 21.2549C23.0186 20.7646 22.5371 16.5238 21.8853 15.221C21.9181 13.9014 21.9509 12.3856 21.9506 11.6609C21.9506 10.9873 21.8913 10.0833 21.8096 9.11338L23.7248 8.09641C23.7719 8.0442 23.8036 7.98004 23.8165 7.91097L24.0904 6.45043C24.3682 6.39554 24.6175 6.24375 24.7938 6.02213C24.9701 5.80051 25.062 5.52348 25.053 5.24043C25.044 4.95738 24.9348 4.68673 24.7448 4.47674C24.5548 4.26674 24.2964 4.13107 24.0156 4.0939C23.7349 4.05674 23.4501 4.12051 23.212 4.27383C22.9739 4.42716 22.798 4.66007 22.7157 4.93103C22.6333 5.20199 22.65 5.49338 22.7625 5.75324C22.8751 6.01309 23.0763 6.22452 23.3303 6.3498L23.0838 7.66427L21.7162 8.07268C21.672 7.60067 21.6255 7.12697 21.5805 6.66913C21.4789 5.63433 21.3829 4.6569 21.3376 3.95198C21.2495 2.56789 20.0685 1.36706 18.7053 1.27519C18.4972 1.26102 18.2645 1.24445 18.0138 1.22657C16.6716 1.13125 14.8334 1 13.4257 1C12.0397 1 10.378 1.1237 9.16468 1.2141C8.87265 1.23598 8.60233 1.25594 8.36198 1.27245C6.99955 1.36684 5.81841 2.56855 5.72899 3.95176C5.68382 4.65312 5.58784 5.6258 5.48624 6.65562C5.4403 7.12183 5.39272 7.60455 5.34755 8.08504L3.96889 7.66427L3.72241 6.3498C3.97613 6.22454 4.17711 6.01323 4.28952 5.75356C4.40193 5.49389 4.41845 5.20273 4.33614 4.93201C4.25384 4.66129 4.07805 4.4286 3.84014 4.27544C3.60222 4.12227 3.31763 4.05859 3.03713 4.09574C2.75662 4.13289 2.49843 4.26846 2.30858 4.47828C2.11874 4.6881 2.0096 4.95853 2.0006 5.24135C1.99161 5.52416 2.08336 5.80097 2.25949 6.02243C2.43562 6.24389 2.68473 6.39559 2.96231 6.45048ZM23.8584 4.85033C23.9432 4.85032 24.0261 4.87545 24.0966 4.92255C24.1671 4.96966 24.2221 5.03661 24.2545 5.11494C24.287 5.19328 24.2955 5.27948 24.2789 5.36264C24.2624 5.44581 24.2216 5.5222 24.1616 5.58216C24.1017 5.64211 24.0253 5.68294 23.9421 5.69948C23.8589 5.71602 23.7727 5.70753 23.6944 5.67508C23.6161 5.64262 23.5491 5.58767 23.502 5.51716C23.4549 5.44665 23.4298 5.36376 23.4298 5.27897C23.4299 5.16533 23.4751 5.05638 23.5555 4.97602C23.6358 4.89566 23.7448 4.85046 23.8584 4.85033ZM5.25288 17.8391C5.36226 19.0164 5.75535 20.0312 6.41641 20.9062H4.79422C4.89025 20.1406 5.05409 18.9196 5.25288 17.8391ZM7.18264 23.8221C7.18264 23.9078 7.08825 23.9688 7.0025 23.9688H6.10497C6.01922 23.9688 5.92483 23.9078 5.92483 23.8221V21.6719H7.12626C7.13752 21.6719 7.12795 21.7022 7.18264 21.7123V23.8221ZM12.7759 19.1245C13.1271 19.1103 13.9517 19.1099 14.2654 19.1234C14.517 19.2546 14.8068 19.6567 15.0648 20.1211C15.0765 20.1507 15.0917 20.1787 15.1103 20.2044C15.2467 20.4575 15.3728 20.7251 15.4775 20.9749C15.1995 21.0827 14.9133 21.1677 14.6216 21.2291C14.5768 21.23 14.5325 21.2388 14.4908 21.2552C14.1663 21.3164 13.8369 21.3475 13.5068 21.3481C13.1872 21.3477 12.8683 21.3177 12.5543 21.2583C12.5174 21.2448 12.4786 21.2371 12.4394 21.2355C12.148 21.1747 11.8624 21.0885 11.5859 20.9781C11.8915 20.23 12.3927 19.3029 12.7759 19.1245ZM14.089 26.1562H12.9637C12.9435 26.1557 12.9236 26.1512 12.9051 26.1429C12.8867 26.1346 12.8701 26.1228 12.8563 26.108C12.8425 26.0932 12.8318 26.0759 12.8248 26.0569C12.8178 26.038 12.8146 26.0178 12.8155 25.9977V22.0718C13.2878 22.1292 13.7654 22.1278 14.2373 22.0675V25.9977C14.2382 26.0178 14.235 26.038 14.228 26.057C14.2209 26.0759 14.2102 26.0933 14.1964 26.108C14.1826 26.1228 14.166 26.1347 14.1476 26.1429C14.1291 26.1512 14.1092 26.1557 14.089 26.1562ZM21.128 23.8221C21.128 23.9078 21.0372 23.9688 20.9514 23.9688H20.0539C19.9681 23.9688 19.8701 23.9078 19.8701 23.8221V21.6719H21.128V23.8221ZM20.6043 20.9062C21.2804 20.0312 21.6852 19.0047 21.8001 17.821C22.0004 18.9063 22.1655 20.1406 22.2621 20.9062H20.6043ZM6.49303 4.00103C6.55866 2.98652 7.42075 2.10513 8.4147 2.03627C8.65614 2.01987 8.92794 1.99941 9.2215 1.97759C10.4229 1.88812 12.0682 1.76562 13.4257 1.76562C14.8062 1.76562 16.6287 1.89545 17.9593 1.99028C18.2108 2.00822 18.4443 2.02484 18.6535 2.03906C19.6475 2.10605 20.5088 2.98603 20.5735 4.00092C20.6196 4.71886 20.7163 5.70252 20.8185 6.74394C20.99 8.49 21.1844 10.4691 21.1849 11.6618C21.1855 13.0692 21.062 17.4166 21.0548 17.5528C20.9184 19.6616 19.8069 21.2056 17.761 22.1416C16.6633 22.6439 15.5498 22.8322 15.003 22.9004V21.9245C15.7139 21.7543 16.1149 21.5287 16.1432 21.5136C16.225 21.4705 16.2887 21.3995 16.3225 21.3135C16.3563 21.2274 16.3581 21.1321 16.3274 21.0448C16.3192 21.0224 16.0967 20.4888 15.8233 19.9063L15.2662 18.7965C15.2674 18.7881 15.2671 18.7796 15.2678 18.7711C15.2841 18.5799 15.2605 18.3874 15.1983 18.2059C15.136 18.0244 15.0367 17.8579 14.9065 17.7169C14.7763 17.576 14.6181 17.4638 14.4421 17.3874C14.2661 17.311 14.076 17.2722 13.8842 17.2734H13.1689C12.9773 17.2722 12.7875 17.311 12.6117 17.3873C12.4358 17.4636 12.2779 17.5756 12.1478 17.7164C12.0177 17.8571 11.9184 18.0235 11.8562 18.2048C11.794 18.386 11.7703 18.5783 11.7865 18.7692C11.7871 18.7761 11.7878 18.7838 11.7887 18.7906L11.2019 19.9672C11.0265 20.3178 10.8721 20.6786 10.7395 21.0476C10.7103 21.1331 10.712 21.2263 10.7445 21.3107C10.777 21.3951 10.8381 21.4654 10.9171 21.5092C10.9445 21.5247 11.3387 21.7579 12.0496 21.9301V22.9035C11.0935 22.801 10.159 22.5508 9.27963 22.1617C8.7759 21.9388 8.30226 21.6534 7.8699 21.3121C7.82655 21.2436 7.76274 21.1904 7.68752 21.1602C7.6453 21.1231 7.60324 21.0856 7.56256 21.0476C7.5456 21.0283 7.52677 21.0108 7.50634 20.9953C6.5848 20.1083 6.07899 18.9581 5.99817 17.5569C5.991 17.4082 5.88184 12.9836 5.88294 11.6078C5.88365 10.4251 6.07724 8.46249 6.24803 6.73087C6.35046 5.69432 6.44704 4.71536 6.49303 4.00103ZM3.19424 4.85033C3.27904 4.85031 3.36193 4.87543 3.43245 4.92253C3.50296 4.96962 3.55793 5.03657 3.59039 5.11491C3.62285 5.19324 3.63135 5.27944 3.61482 5.36261C3.59829 5.44578 3.55746 5.52217 3.4975 5.58214C3.43755 5.6421 3.36116 5.68294 3.27799 5.69948C3.19483 5.71602 3.10862 5.70753 3.03028 5.67508C2.95195 5.64263 2.88499 5.58767 2.83789 5.51717C2.79078 5.44666 2.76565 5.36376 2.76566 5.27897C2.76579 5.16534 2.81098 5.05639 2.89133 4.97604C2.97167 4.89568 3.08061 4.85047 3.19424 4.85033Z" stroke="#4E4BC9" stroke-width="0.4" mask="url(#path-2-outside-1_340_365)"/>
<path d="M8.5264 14.9609C8.72418 14.9609 8.91752 14.9023 9.08197 14.7924C9.24642 14.6825 9.37459 14.5263 9.45028 14.3436C9.52596 14.1609 9.54577 13.9598 9.50718 13.7658C9.4686 13.5719 9.37336 13.3937 9.2335 13.2538C9.09365 13.114 8.91547 13.0187 8.72149 12.9802C8.52751 12.9416 8.32644 12.9614 8.14371 13.0371C7.96099 13.1127 7.80481 13.2409 7.69493 13.4054C7.58505 13.5698 7.5264 13.7632 7.5264 13.9609C7.52669 14.2261 7.63215 14.4802 7.81962 14.6677C8.00709 14.8552 8.26127 14.9606 8.5264 14.9609Z" fill="#4E4BC9"/>
<path d="M17.5264 13.9609C17.5264 14.1587 17.585 14.3521 17.6949 14.5165C17.8048 14.681 17.961 14.8091 18.1437 14.8848C18.3264 14.9605 18.5275 14.9803 18.7215 14.9417C18.9155 14.9031 19.0937 14.8079 19.2335 14.668C19.3734 14.5282 19.4686 14.35 19.5072 14.156C19.5458 13.962 19.526 13.761 19.4503 13.5783C19.3746 13.3955 19.2464 13.2393 19.082 13.1295C18.9175 13.0196 18.7242 12.9609 18.5264 12.9609C18.2613 12.9612 18.0071 13.0667 17.8196 13.2542C17.6321 13.4416 17.5267 13.6958 17.5264 13.9609Z" fill="#4E4BC9"/>
<path d="M15.0795 12.9375H11.9733C11.7139 12.9375 11.503 13.1654 11.503 13.4369V14.6947C11.5017 14.7575 11.513 14.8199 11.536 14.8783C11.559 14.9368 11.5934 14.9901 11.6371 15.0351C11.6808 15.0802 11.733 15.1162 11.7907 15.141C11.8484 15.1658 11.9105 15.179 11.9733 15.1797H15.0795C15.1423 15.179 15.2044 15.1658 15.2621 15.141C15.3198 15.1162 15.372 15.0802 15.4157 15.0351C15.4594 14.9901 15.4938 14.9368 15.5168 14.8783C15.5398 14.8199 15.5511 14.7575 15.5498 14.6947V13.4369C15.5498 13.1654 15.3389 12.9375 15.0795 12.9375ZM14.7842 14.4141H12.2686V13.7031H14.7842V14.4141Z" fill="#4E4BC9" stroke="#4E4BC9" stroke-width="0.2"/>
</svg>
