<svg width="12" height="12" viewBox="0 0 12 12" fill="none" xmlns="http://www.w3.org/2000/svg">
<path d="M5.29341 1.34412L0.64688 9.9979C0.38438 10.487 0.766224 11.0625 1.35347 11.0625H10.6465C11.2338 11.0625 11.6157 10.487 11.3531 9.9979L6.7066 1.34412C6.41541 0.801961 5.5846 0.801961 5.29341 1.34412V1.34412Z" fill="#F0C357"/>
<path d="M5.99999 2.9743C5.93239 2.97328 5.86527 2.98576 5.80255 3.01101C5.73984 3.03627 5.6828 3.07379 5.63478 3.12138C5.58675 3.16897 5.54871 3.22566 5.52288 3.28814C5.49706 3.35062 5.48396 3.41763 5.48437 3.48524L5.57971 7.63733C5.58365 7.74564 5.62984 7.8481 5.7084 7.92277C5.78695 7.99743 5.89163 8.03837 5.99999 8.0368C6.10835 8.03834 6.213 7.9974 6.29153 7.92274C6.37007 7.84807 6.41625 7.74562 6.42018 7.63733L6.51562 3.48524C6.51603 3.41763 6.50293 3.35062 6.47711 3.28814C6.45128 3.22566 6.41324 3.16897 6.36521 3.12138C6.31719 3.07379 6.26015 3.03627 6.19743 3.01101C6.13472 2.98576 6.06759 2.97328 5.99999 2.9743Z" fill="#423E4F"/>
<path d="M6 9.95825C6.31066 9.95825 6.5625 9.70641 6.5625 9.39575C6.5625 9.08509 6.31066 8.83325 6 8.83325C5.68934 8.83325 5.4375 9.08509 5.4375 9.39575C5.4375 9.70641 5.68934 9.95825 6 9.95825Z" fill="#423E4F"/>
</svg>
