<svg width="28" height="28" viewBox="0 0 28 28" fill="none" xmlns="http://www.w3.org/2000/svg">
<mask id="mask0_298_266" style="mask-type:alpha" maskUnits="userSpaceOnUse" x="0" y="0" width="28" height="28">
<rect width="28" height="28" fill="#D9D9D9"/>
</mask>
<g mask="url(#mask0_298_266)">
<path d="M6.45264 20.6949C7.52633 19.8949 8.69475 19.2633 9.95791 18.8002C11.2211 18.337 12.5684 18.1054 14 18.1054C15.4316 18.1054 16.779 18.337 18.0421 18.8002C19.3053 19.2633 20.4737 19.8949 21.5474 20.6949C22.3263 19.8317 22.9474 18.8317 23.4105 17.6949C23.8737 16.5581 24.1053 15.3265 24.1053 14.0002C24.1053 11.2002 23.1213 8.81574 21.1533 6.8469C19.1844 4.8789 16.8 3.8949 14 3.8949C11.2 3.8949 8.81601 4.8789 6.84801 6.8469C4.87917 8.81574 3.89475 11.2002 3.89475 14.0002C3.89475 15.3265 4.12633 16.5581 4.58949 17.6949C5.05264 18.8317 5.6737 19.8317 6.45264 20.6949ZM14 14.9475C12.8421 14.9475 11.8686 14.5526 11.0796 13.7627C10.2897 12.9736 9.89475 12.0002 9.89475 10.8423C9.89475 9.68437 10.2897 8.7109 11.0796 7.92185C11.8686 7.13195 12.8421 6.73701 14 6.73701C15.1579 6.73701 16.1314 7.13195 16.9204 7.92185C17.7103 8.7109 18.1053 9.68437 18.1053 10.8423C18.1053 12.0002 17.7103 12.9736 16.9204 13.7627C16.1314 14.5526 15.1579 14.9475 14 14.9475ZM14 26.0002C12.3369 26.0002 10.7739 25.6844 9.31117 25.0528C7.84759 24.4212 6.57896 23.5686 5.50527 22.4949C4.43159 21.4212 3.57896 20.1526 2.94738 18.689C2.3158 17.2263 2.00001 15.6633 2.00001 14.0002C2.00001 12.337 2.3158 10.7736 2.94738 9.31006C3.57896 7.84732 4.43159 6.57911 5.50527 5.50543C6.57896 4.43174 7.84759 3.57911 9.31117 2.94753C10.7739 2.31595 12.3369 2.00016 14 2.00016C15.6632 2.00016 17.2265 2.31595 18.6901 2.94753C20.1529 3.57911 21.4211 4.43174 22.4947 5.50543C23.5684 6.57911 24.4211 7.84732 25.0526 9.31006C25.6842 10.7736 26 12.337 26 14.0002C26 15.6633 25.6842 17.2263 25.0526 18.689C24.4211 20.1526 23.5684 21.4212 22.4947 22.4949C21.4211 23.5686 20.1529 24.4212 18.6901 25.0528C17.2265 25.6844 15.6632 26.0002 14 26.0002Z" fill="#4E4BC9"/>
</g>
</svg>
