<svg width="115" height="43" viewBox="0 0 115 43" fill="none" xmlns="http://www.w3.org/2000/svg">
<rect x="109" y="2" width="38" height="107" rx="4" transform="rotate(90 109 2)" fill="white"/>
<path d="M9 4C6.79086 4 5 5.79086 5 8L5 34C5 36.2091 6.79086 38 9 38L15 38L15 4L9 4Z" fill="#F93C00"/>
<rect x="111" y="13" width="4" height="16" fill="#484D4D"/>
<path d="M-1.64498e-05 33.2583L-1.55722e-05 8.75275C-1.53993e-05 3.9244 4.32722 -4.41105e-06 9.63902 -4.12764e-06L101.481 -5.14927e-07C106.805 -2.30874e-07 111.132 3.92441 111.132 8.75276L111.132 33.2583C111.132 38.0866 106.805 42.011 101.481 42.011L9.65117 42.011C4.32722 42 -1.66223e-05 38.0756 -1.64498e-05 33.2583ZM108.653 8.75276C108.653 5.15906 105.432 2.2378 101.469 2.23779L9.63902 2.23779C5.67644 2.23779 2.45533 5.15905 2.45533 8.75275L2.45533 33.2583C2.45533 36.852 5.67644 39.7732 9.63901 39.7732L101.481 39.7732C105.444 39.7732 108.665 36.852 108.665 33.2583L108.665 8.75276L108.653 8.75276Z" fill="#484D4D"/>
<path d="M35.583 12.886C35.583 15.229 36.287 16.978 38.553 16.978C40.819 16.978 41.523 15.229 41.523 12.886C41.523 10.565 40.819 8.827 38.553 8.827C36.287 8.827 35.583 10.565 35.583 12.886ZM40.005 12.886C40.005 14.316 39.851 15.548 38.553 15.548C37.255 15.548 37.101 14.316 37.101 12.886C37.101 11.511 37.255 10.257 38.553 10.257C39.851 10.257 40.005 11.511 40.005 12.886ZM42.8923 13.722L47.5563 13.722L47.5563 12.424L42.8923 12.424L42.8923 13.722ZM49.9874 17L51.5714 17L51.5714 8.981L48.9204 8.981L48.9204 10.4L49.9874 10.4L49.9874 17ZM53.0928 12.886C53.0928 15.229 53.7968 16.978 56.0628 16.978C58.3288 16.978 59.0328 15.229 59.0328 12.886C59.0328 10.565 58.3288 8.827 56.0628 8.827C53.7968 8.827 53.0928 10.565 53.0928 12.886ZM57.5148 12.886C57.5148 14.316 57.3608 15.548 56.0628 15.548C54.7648 15.548 54.6108 14.316 54.6108 12.886C54.6108 11.511 54.7648 10.257 56.0628 10.257C57.3608 10.257 57.5148 11.511 57.5148 12.886ZM60.0281 10.95C60.0281 12.105 60.7761 12.743 61.7771 12.743C62.7781 12.743 63.5261 12.105 63.5261 10.95C63.5261 9.806 62.7781 9.168 61.7771 9.168C60.7761 9.168 60.0281 9.806 60.0281 10.95ZM61.7661 10.092C62.1511 10.092 62.3931 10.345 62.3931 10.95C62.3931 11.555 62.1511 11.819 61.7661 11.819C61.3921 11.819 61.1611 11.555 61.1611 10.95C61.1611 10.345 61.3921 10.092 61.7661 10.092ZM61.2711 17L62.7671 17L67.0901 9.3L65.5831 9.3L61.2711 17ZM64.8571 15.339C64.8571 16.505 65.6051 17.132 66.6061 17.132C67.5961 17.132 68.3331 16.505 68.3331 15.339C68.3331 14.184 67.5961 13.557 66.6061 13.557C65.6051 13.557 64.8571 14.184 64.8571 15.339ZM66.5951 14.481C66.9691 14.481 67.2111 14.734 67.2111 15.339C67.2111 15.955 66.9691 16.208 66.5951 16.208C66.2101 16.208 65.9681 15.955 65.9681 15.339C65.9681 14.734 66.2101 14.481 66.5951 14.481Z" fill="#F93C00"/>
<path d="M28.935 31.745C29.023 32.922 29.837 34.011 31.542 34.011C33.665 34.011 34.27 32.537 34.27 29.809C34.27 27.268 33.599 25.794 31.421 25.794C29.727 25.794 28.715 26.85 28.715 28.456C28.715 30.15 29.826 31.019 31.212 31.019C31.916 31.019 32.565 30.744 32.906 30.271C32.906 32.075 32.51 32.746 31.608 32.746C30.893 32.746 30.486 32.383 30.365 31.745L28.935 31.745ZM31.531 29.765C30.596 29.765 30.189 29.171 30.189 28.445C30.189 27.642 30.673 27.103 31.476 27.103C32.257 27.103 32.763 27.587 32.763 28.467C32.763 29.248 32.301 29.765 31.531 29.765ZM35.4687 29.886C35.4687 32.229 36.1727 33.978 38.4387 33.978C40.7047 33.978 41.4087 32.229 41.4087 29.886C41.4087 27.565 40.7047 25.827 38.4387 25.827C36.1727 25.827 35.4687 27.565 35.4687 29.886ZM39.8907 29.886C39.8907 31.316 39.7367 32.548 38.4387 32.548C37.1407 32.548 36.9867 31.316 36.9867 29.886C36.9867 28.511 37.1407 27.257 38.4387 27.257C39.7367 27.257 39.8907 28.511 39.8907 29.886ZM42.7781 30.722L47.4421 30.722L47.4421 29.424L42.7781 29.424L42.7781 30.722ZM49.8732 34L51.4572 34L51.4572 25.981L48.8062 25.981L48.8062 27.4L49.8732 27.4L49.8732 34ZM52.9785 29.886C52.9785 32.229 53.6825 33.978 55.9485 33.978C58.2145 33.978 58.9185 32.229 58.9185 29.886C58.9185 27.565 58.2145 25.827 55.9485 25.827C53.6825 25.827 52.9785 27.565 52.9785 29.886ZM57.4005 29.886C57.4005 31.316 57.2465 32.548 55.9485 32.548C54.6505 32.548 54.4965 31.316 54.4965 29.886C54.4965 28.511 54.6505 27.257 55.9485 27.257C57.2465 27.257 57.4005 28.511 57.4005 29.886ZM60.0898 29.886C60.0898 32.229 60.7938 33.978 63.0598 33.978C65.3258 33.978 66.0298 32.229 66.0298 29.886C66.0298 27.565 65.3258 25.827 63.0598 25.827C60.7938 25.827 60.0898 27.565 60.0898 29.886ZM64.5118 29.886C64.5118 31.316 64.3578 32.548 63.0598 32.548C61.7618 32.548 61.6078 31.316 61.6078 29.886C61.6078 28.511 61.7618 27.257 63.0598 27.257C64.3578 27.257 64.5118 28.511 64.5118 29.886ZM67.0252 27.95C67.0252 29.105 67.7732 29.743 68.7742 29.743C69.7752 29.743 70.5232 29.105 70.5232 27.95C70.5232 26.806 69.7752 26.168 68.7742 26.168C67.7732 26.168 67.0252 26.806 67.0252 27.95ZM68.7632 27.092C69.1482 27.092 69.3902 27.345 69.3902 27.95C69.3902 28.555 69.1482 28.819 68.7632 28.819C68.3892 28.819 68.1582 28.555 68.1582 27.95C68.1582 27.345 68.3892 27.092 68.7632 27.092ZM68.2682 34L69.7642 34L74.0872 26.3L72.5802 26.3L68.2682 34ZM71.8542 32.339C71.8542 33.505 72.6022 34.132 73.6032 34.132C74.5932 34.132 75.3302 33.505 75.3302 32.339C75.3302 31.184 74.5932 30.557 73.6032 30.557C72.6022 30.557 71.8542 31.184 71.8542 32.339ZM73.5922 31.481C73.9662 31.481 74.2082 31.734 74.2082 32.339C74.2082 32.955 73.9662 33.208 73.5922 33.208C73.2072 33.208 72.9652 32.955 72.9652 32.339C72.9652 31.734 73.2072 31.481 73.5922 31.481Z" fill="#F93C00"/>
<path d="M101 4C103.209 4 105 5.79086 105 8L105 34C105 36.2091 103.209 38 101 38L95 38L95 4L101 4Z" fill="#F93C00"/>
</svg>
