<svg width="115" height="43" viewBox="0 0 115 43" fill="none" xmlns="http://www.w3.org/2000/svg">
<rect x="109" y="2" width="38" height="107" rx="4" transform="rotate(90 109 2)" fill="white"/>
<path d="M9 4C6.79086 4 5 5.79086 5 8L5 34C5 36.2091 6.79086 38 9 38L15 38L15 4L9 4Z" fill="#F93C00"/>
<rect x="111" y="13" width="4" height="16" fill="#484D4D"/>
<path d="M-1.64498e-05 33.2583L-1.55722e-05 8.75275C-1.53993e-05 3.9244 4.32722 -4.41105e-06 9.63902 -4.12764e-06L101.481 -5.14927e-07C106.805 -2.30874e-07 111.132 3.92441 111.132 8.75276L111.132 33.2583C111.132 38.0866 106.805 42.011 101.481 42.011L9.65117 42.011C4.32722 42 -1.66223e-05 38.0756 -1.64498e-05 33.2583ZM108.653 8.75276C108.653 5.15906 105.432 2.2378 101.469 2.23779L9.63902 2.23779C5.67644 2.23779 2.45533 5.15905 2.45533 8.75275L2.45533 33.2583C2.45533 36.852 5.67644 39.7732 9.63901 39.7732L101.481 39.7732C105.444 39.7732 108.665 36.852 108.665 33.2583L108.665 8.75276L108.653 8.75276Z" fill="#484D4D"/>
<path d="M38.583 12.886C38.583 15.229 39.287 16.978 41.553 16.978C43.819 16.978 44.523 15.229 44.523 12.886C44.523 10.565 43.819 8.827 41.553 8.827C39.287 8.827 38.583 10.565 38.583 12.886ZM43.005 12.886C43.005 14.316 42.851 15.548 41.553 15.548C40.255 15.548 40.101 14.316 40.101 12.886C40.101 11.511 40.255 10.257 41.553 10.257C42.851 10.257 43.005 11.511 43.005 12.886ZM45.8923 13.722L50.5563 13.722L50.5563 12.424L45.8923 12.424L45.8923 13.722ZM52.5254 8.959L52.5254 13.667L53.9994 13.667C54.1644 13.172 54.5714 12.82 55.2094 12.82C56.0784 12.82 56.5294 13.315 56.5294 14.217C56.5294 15.064 56.1224 15.702 55.2204 15.702C54.4724 15.702 54.0214 15.295 53.8894 14.734L52.3934 14.734C52.5254 16.043 53.5154 17 55.2424 17C57.0684 17 58.0144 15.834 58.0144 14.195C58.0144 12.952 57.3764 11.544 55.5064 11.544C54.8354 11.544 54.2304 11.83 53.9334 12.193L53.9334 10.312L57.4974 10.312L57.4974 8.959L52.5254 8.959ZM59.0105 10.95C59.0105 12.105 59.7585 12.743 60.7595 12.743C61.7605 12.743 62.5085 12.105 62.5085 10.95C62.5085 9.806 61.7605 9.168 60.7595 9.168C59.7585 9.168 59.0105 9.806 59.0105 10.95ZM60.7485 10.092C61.1335 10.092 61.3755 10.345 61.3755 10.95C61.3755 11.555 61.1335 11.819 60.7485 11.819C60.3745 11.819 60.1435 11.555 60.1435 10.95C60.1435 10.345 60.3745 10.092 60.7485 10.092ZM60.2535 17L61.7495 17L66.0725 9.3L64.5655 9.3L60.2535 17ZM63.8395 15.339C63.8395 16.505 64.5875 17.132 65.5885 17.132C66.5785 17.132 67.3155 16.505 67.3155 15.339C67.3155 14.184 66.5785 13.557 65.5885 13.557C64.5875 13.557 63.8395 14.184 63.8395 15.339ZM65.5775 14.481C65.9515 14.481 66.1935 14.734 66.1935 15.339C66.1935 15.955 65.9515 16.208 65.5775 16.208C65.1925 16.208 64.9505 15.955 64.9505 15.339C64.9505 14.734 65.1925 14.481 65.5775 14.481Z" fill="#F93C00"/>
<path d="M30.935 31.745C31.023 32.922 31.837 34.011 33.542 34.011C35.665 34.011 36.27 32.537 36.27 29.809C36.27 27.268 35.599 25.794 33.421 25.794C31.727 25.794 30.715 26.85 30.715 28.456C30.715 30.15 31.826 31.019 33.212 31.019C33.916 31.019 34.565 30.744 34.906 30.271C34.906 32.075 34.51 32.746 33.608 32.746C32.893 32.746 32.486 32.383 32.365 31.745L30.935 31.745ZM33.531 29.765C32.596 29.765 32.189 29.171 32.189 28.445C32.189 27.642 32.673 27.103 33.476 27.103C34.257 27.103 34.763 27.587 34.763 28.467C34.763 29.248 34.301 29.765 33.531 29.765ZM37.8867 25.959L37.8867 30.667L39.3607 30.667C39.5257 30.172 39.9327 29.82 40.5707 29.82C41.4397 29.82 41.8907 30.315 41.8907 31.217C41.8907 32.064 41.4837 32.702 40.5817 32.702C39.8337 32.702 39.3827 32.295 39.2507 31.734L37.7547 31.734C37.8867 33.043 38.8767 34 40.6037 34C42.4297 34 43.3757 32.834 43.3757 31.195C43.3757 29.952 42.7377 28.544 40.8677 28.544C40.1967 28.544 39.5917 28.83 39.2947 29.193L39.2947 27.312L42.8587 27.312L42.8587 25.959L37.8867 25.959ZM44.7458 30.722L49.4098 30.722L49.4098 29.424L44.7458 29.424L44.7458 30.722ZM51.8409 34L53.4249 34L53.4249 25.981L50.7739 25.981L50.7739 27.4L51.8409 27.4L51.8409 34ZM54.9463 29.886C54.9463 32.229 55.6503 33.978 57.9163 33.978C60.1823 33.978 60.8863 32.229 60.8863 29.886C60.8863 27.565 60.1823 25.827 57.9163 25.827C55.6503 25.827 54.9463 27.565 54.9463 29.886ZM59.3683 29.886C59.3683 31.316 59.2143 32.548 57.9163 32.548C56.6183 32.548 56.4643 31.316 56.4643 29.886C56.4643 28.511 56.6183 27.257 57.9163 27.257C59.2143 27.257 59.3683 28.511 59.3683 29.886ZM62.0576 29.886C62.0576 32.229 62.7616 33.978 65.0276 33.978C67.2936 33.978 67.9976 32.229 67.9976 29.886C67.9976 27.565 67.2936 25.827 65.0276 25.827C62.7616 25.827 62.0576 27.565 62.0576 29.886ZM66.4796 29.886C66.4796 31.316 66.3256 32.548 65.0276 32.548C63.7296 32.548 63.5756 31.316 63.5756 29.886C63.5756 28.511 63.7296 27.257 65.0276 27.257C66.3256 27.257 66.4796 28.511 66.4796 29.886ZM68.9929 27.95C68.9929 29.105 69.7409 29.743 70.7419 29.743C71.7429 29.743 72.4909 29.105 72.4909 27.95C72.4909 26.806 71.7429 26.168 70.7419 26.168C69.7409 26.168 68.9929 26.806 68.9929 27.95ZM70.7309 27.092C71.1159 27.092 71.3579 27.345 71.3579 27.95C71.3579 28.555 71.1159 28.819 70.7309 28.819C70.3569 28.819 70.1259 28.555 70.1259 27.95C70.1259 27.345 70.3569 27.092 70.7309 27.092ZM70.2359 34L71.7319 34L76.0549 26.3L74.5479 26.3L70.2359 34ZM73.8219 32.339C73.8219 33.505 74.5699 34.132 75.5709 34.132C76.5609 34.132 77.2979 33.505 77.2979 32.339C77.2979 31.184 76.5609 30.557 75.5709 30.557C74.5699 30.557 73.8219 31.184 73.8219 32.339ZM75.5599 31.481C75.9339 31.481 76.1759 31.734 76.1759 32.339C76.1759 32.955 75.9339 33.208 75.5599 33.208C75.1749 33.208 74.9329 32.955 74.9329 32.339C74.9329 31.734 75.1749 31.481 75.5599 31.481Z" fill="#F93C00"/>
<path d="M101 4C103.209 4 105 5.79086 105 8L105 34C105 36.2091 103.209 38 101 38L95 38L95 4L101 4Z" fill="#F93C00"/>
</svg>
