<svg width="28" height="28" viewBox="0 0 28 28" fill="none" xmlns="http://www.w3.org/2000/svg">
<rect width="28" height="28" fill="white"/>
<path d="M12.4751 14.5769C12.4751 12.5614 11.3253 10.8096 9.64723 9.94262C10.5578 9.2315 11.1449 8.12453 11.1449 6.88233C11.1449 4.74158 9.40323 3 7.26254 3C5.12184 3 3.38021 4.74163 3.38021 6.88233C3.38021 8.12453 3.9673 9.2315 4.87784 9.94262C3.19974 10.8096 2.04992 12.5614 2.04992 14.5769V15.2771H12.4751V14.5769ZM3.51478 13.8767C3.84449 12.1079 5.39963 10.7647 7.26254 10.7647C9.12544 10.7647 10.6805 12.108 11.0103 13.8767H3.51478ZM4.78056 6.88233C4.78056 5.51377 5.89397 4.4004 7.26249 4.4004C8.63101 4.4004 9.74442 5.51381 9.74442 6.88233C9.74442 8.25085 8.63101 9.36426 7.26249 9.36426C5.89397 9.36426 4.78056 8.25089 4.78056 6.88233V6.88233Z" fill="#4E4BC9"/>
<path d="M21.834 18.0031C23.2151 17.0998 24.1296 15.5397 24.1296 13.7698C24.1296 10.9825 21.8619 8.71484 19.0746 8.71484C16.2873 8.71484 14.0197 10.9825 14.0197 13.7698C14.0197 15.5397 14.9342 17.0998 16.3153 18.0031C13.8942 19.0682 12.1992 21.4896 12.1992 24.2998V25H25.9501V24.2998C25.9501 21.4896 24.2551 19.0682 21.834 18.0031ZM13.6442 23.5996C13.9889 20.91 16.2928 18.8248 19.0746 18.8248C21.8564 18.8248 24.1603 20.9101 24.5051 23.5996H13.6442ZM22.7292 13.7698C22.7292 15.785 21.0898 17.4244 19.0746 17.4244C17.0595 17.4244 15.4201 15.785 15.4201 13.7698C15.4201 11.7547 17.0595 10.1152 19.0746 10.1152C21.0898 10.1152 22.7292 11.7547 22.7292 13.7698V13.7698Z" fill="#4E4BC9"/>
<path d="M7.71183 19.8578L8.60291 20.7489H3.45032V16.7207H2.04992V22.1493H8.60291L7.71183 23.0404L8.70205 24.0306L11.2836 21.4491L8.70205 18.8676L7.71183 19.8578Z" fill="#4E4BC9"/>
</svg>
