<svg width="28" height="28" viewBox="0 0 28 28" fill="none" xmlns="http://www.w3.org/2000/svg">
<rect width="28" height="28" fill="white"/>
<path d="M11.9044 18.6092L9.9322 20.5316L10.3979 23.2469C10.4182 23.3656 10.3694 23.4856 10.2719 23.5565C10.2168 23.5967 10.1513 23.617 10.0858 23.617C10.0354 23.617 9.98476 23.605 9.93853 23.5806L7.5 22.2986L5.06178 23.5803C4.9554 23.6366 4.82591 23.6274 4.72839 23.5562C4.63088 23.4853 4.58212 23.3653 4.60238 23.2466L5.06812 20.5313L3.09563 18.6092C3.00951 18.525 2.97817 18.3989 3.01553 18.2846C3.05289 18.1704 3.15199 18.0864 3.27135 18.069L5.99705 17.6733L7.216 15.2031C7.3227 14.9868 7.6773 14.9868 7.784 15.2031L9.00295 17.6733L11.7287 18.069C11.848 18.0864 11.9471 18.17 11.9845 18.2846C12.0218 18.3993 11.9905 18.5246 11.9044 18.6092V18.6092Z" fill="#4E4BC9"/>
<path d="M18.3552 8.3456L16.5061 10.1481L16.9428 12.6939C16.9618 12.8052 16.916 12.9177 16.8246 12.9842C16.773 13.0219 16.7115 13.0409 16.6501 13.0409C16.6029 13.0409 16.5554 13.0296 16.512 13.0068L14.2257 11.8048L11.9396 13.0065C11.8399 13.0593 11.7185 13.0507 11.627 12.9839C11.5356 12.9174 11.4899 12.8049 11.5089 12.6936L11.9456 10.1478L10.0962 8.3456C10.0154 8.26664 9.98603 8.14849 10.0211 8.04133C10.0561 7.93416 10.149 7.8555 10.2609 7.83917L12.8165 7.4681L13.9594 5.15206C14.0594 4.94931 14.3919 4.94931 14.492 5.15206L15.6348 7.4681L18.1904 7.83917C18.3024 7.8555 18.3953 7.93387 18.4303 8.04133C18.4653 8.14879 18.4359 8.26634 18.3552 8.3456V8.3456Z" fill="#4E4BC9"/>
<path d="M24.3062 18.3695L22.4665 20.1628L22.901 22.6956C22.9199 22.8064 22.8744 22.9183 22.7834 22.9845C22.732 23.022 22.6709 23.0409 22.6098 23.0409C22.5628 23.0409 22.5156 23.0297 22.4724 23.0069L20.1977 21.8111L17.9233 23.0066C17.824 23.0592 17.7033 23.0506 17.6123 22.9842C17.5213 22.918 17.4758 22.8061 17.4947 22.6953L17.9292 20.1625L16.0892 18.3695C16.0089 18.2909 15.9796 18.1734 16.0145 18.0667C16.0493 17.9601 16.1418 17.8819 16.2531 17.8656L18.7957 17.4964L19.9328 15.1922C20.0323 14.9905 20.3631 14.9905 20.4626 15.1922L21.5997 17.4964L24.1423 17.8656C24.2536 17.8819 24.3461 17.9598 24.3809 18.0667C24.4158 18.1737 24.3865 18.2906 24.3062 18.3695V18.3695Z" fill="#4E4BC9"/>
</svg>
