<svg width="28" height="28" viewBox="0 0 28 28" fill="none" xmlns="http://www.w3.org/2000/svg">
<path d="M10.6193 11.0707C10.6195 11.0706 10.6198 11.0704 10.62 11.0703C11.276 10.6767 12.3625 10.0232 12.3625 8.44922C12.3625 6.85673 11.0644 5.56406 9.48281 5.56406C7.89032 5.56406 6.59766 6.85673 6.59766 8.44922C6.59766 8.8003 6.88408 9.08672 7.23516 9.08672C7.58624 9.08672 7.87266 8.8003 7.87266 8.44922C7.87266 7.55929 8.59756 6.83906 9.48281 6.83906C10.3727 6.83906 11.093 7.56397 11.093 8.44922C11.093 8.88234 10.9613 9.16448 10.7666 9.38439C10.5627 9.61459 10.2847 9.78391 9.96398 9.97916L10.068 10.15L9.96478 9.97867C9.95922 9.98202 9.95363 9.98539 9.94802 9.98877C9.716 10.1285 9.44554 10.2913 9.2345 10.5031C9.01188 10.7265 8.84531 11.0138 8.84531 11.3969V11.7852C8.84531 12.1362 9.13173 12.4227 9.48281 12.4227C9.83389 12.4227 10.1203 12.1362 10.1203 11.7852V11.4213C10.1216 11.4196 10.1231 11.4177 10.1249 11.4156C10.1437 11.3933 10.1771 11.3627 10.2282 11.324C10.327 11.2493 10.4597 11.1682 10.6047 11.0797L10.6193 11.0707ZM10.1136 11.4312C10.1135 11.4312 10.1138 11.4307 10.1143 11.4298L10.1136 11.4312Z" fill="#C1C1C1" stroke="#C1C1C1" stroke-width="0.4"/>
<path d="M9.47736 14.9813C9.84484 14.9813 10.1422 14.6839 10.1422 14.3164C10.1422 13.9559 9.84637 13.6516 9.47736 13.6516C9.10987 13.6516 8.81251 13.9489 8.81251 14.3164C8.81251 14.6839 9.10987 14.9813 9.47736 14.9813Z" fill="#C1C1C1" stroke="#C1C1C1" stroke-width="0.4"/>
<path d="M20.9844 20.1678C21.3355 20.1678 21.6219 19.8814 21.6219 19.5303C21.6219 19.1721 21.3338 18.8928 20.9844 18.8928H15.1094C14.7583 18.8928 14.4719 19.1792 14.4719 19.5303C14.4719 19.8814 14.7583 20.1678 15.1094 20.1678H20.9844Z" fill="#C1C1C1" stroke="#C1C1C1" stroke-width="0.4"/>
<path d="M20.9844 16.6844C21.3355 16.6844 21.6219 16.398 21.6219 16.0469C21.6219 15.6958 21.3355 15.4094 20.9844 15.4094H16.1094C15.7583 15.4094 15.4719 15.6958 15.4719 16.0469C15.4719 16.398 15.7583 16.6844 16.1094 16.6844H20.9844Z" fill="#C1C1C1" stroke="#C1C1C1" stroke-width="0.4"/>
<path d="M1.88131 18.7801L1.88135 18.7803L1.88998 18.7784L6.07101 17.8906C7.06065 18.3777 8.14453 18.6699 9.24599 18.7637C9.4126 20.8745 10.3282 22.8336 11.8468 24.3359L11.847 24.3361C13.514 25.9807 15.7191 26.8875 18.0578 26.8875C19.4053 26.8875 20.7469 26.5741 21.9507 25.9843L26.1319 26.8722L26.1319 26.8722L26.1342 26.8727C26.165 26.8788 26.2134 26.8875 26.2664 26.8875C26.4338 26.8875 26.5916 26.8232 26.7149 26.7076L26.715 26.7077L26.7195 26.7031C26.8723 26.5504 26.9342 26.3294 26.8948 26.1247L26.8949 26.1247L26.8939 26.12L25.9845 21.9392C26.5742 20.7356 26.8875 19.3942 26.8875 18.0469C26.8875 15.7084 25.9809 13.4976 24.3359 11.8359C22.8334 10.3171 20.8745 9.40707 18.7646 9.23554C18.3996 4.69604 14.5884 1.1125 9.95312 1.1125C5.07939 1.1125 1.1125 5.07939 1.1125 9.95312C1.1125 11.3006 1.42592 12.6422 2.01571 13.846L1.1282 18.0254C1.12813 18.0257 1.12805 18.026 1.12798 18.0263C1.07966 18.2455 1.15406 18.4611 1.30233 18.6094L1.30233 18.6094C1.42476 18.7318 1.59181 18.7938 1.75547 18.7938C1.79995 18.7938 1.84742 18.7858 1.87598 18.781L1.88131 18.7801ZM6.44798 16.6559L6.448 16.6559L6.44413 16.6539C6.35281 16.6083 6.25673 16.5836 6.15234 16.5836C6.10787 16.5836 6.06041 16.5916 6.03185 16.5964L6.0265 16.5973L6.02647 16.5971L6.0179 16.5989L2.57819 17.3281L3.30696 13.8903C3.30703 13.8899 3.30711 13.8896 3.30719 13.8892C3.33982 13.7411 3.31369 13.5924 3.2544 13.4664L3.25459 13.4663L3.25034 13.4583C2.686 12.3881 2.3875 11.1733 2.3875 9.95312C2.3875 5.78155 5.78155 2.3875 9.95312 2.3875C14.1247 2.3875 17.5187 5.78155 17.5187 9.95312C17.5187 14.1247 14.1247 17.5187 9.95312 17.5187C8.73291 17.5187 7.5181 17.2202 6.44798 16.6559ZM18.0469 25.6125C14.1421 25.6125 10.8889 22.5974 10.5143 18.7773C13.2317 18.605 15.6153 17.2015 17.1206 15.1236C17.3472 14.8107 17.4409 14.6769 17.5029 14.5744C17.5347 14.5218 17.5611 14.4718 17.5939 14.4094C17.6201 14.3595 17.6506 14.3017 17.6913 14.2283C18.3084 13.1163 18.693 11.8575 18.7774 10.5195C22.6023 10.8888 25.6125 14.1418 25.6125 18.0469C25.6125 19.2671 25.314 20.4819 24.7497 21.552L24.7496 21.552L24.7477 21.5559C24.6775 21.6963 24.6616 21.8523 24.6929 21.9941C24.6929 21.9944 24.693 21.9947 24.693 21.9949L25.4215 25.4215L22.0028 24.6935C21.8479 24.6542 21.6895 24.68 21.5578 24.7495C20.482 25.314 19.267 25.6125 18.0469 25.6125Z" fill="#C1C1C1" stroke="#C1C1C1" stroke-width="0.4"/>
</svg>
