<svg width="28" height="28" viewBox="0 0 28 28" fill="none" xmlns="http://www.w3.org/2000/svg">
<rect width="28" height="28" fill="white"/>
<path d="M27 21.2812C27 19.5474 25.6854 18.1036 23.963 17.8179C23.7668 11.272 20.5254 7.21931 20.1936 6.51562H21.873C22.2775 6.51562 22.6055 6.20081 22.6055 5.8125C22.6055 5.42419 22.2775 5.10938 21.873 5.10938H7.61523C4.51899 5.10938 2 7.52761 2 10.5V21.2812C2 21.6696 2.32793 21.9844 2.73242 21.9844H3.41245C3.38813 23.592 4.74302 24.8906 6.39453 24.8906C8.04297 24.8906 9.40098 23.5949 9.37661 21.9844H20.3569C20.2684 23.4098 21.5656 24.8906 23.3379 24.8906C25.1082 24.8906 26.4125 23.4046 26.3187 21.9819C26.6993 21.9566 27 21.653 27 21.2812ZM25.4097 20.5781H21.2661C21.9566 18.7085 24.7186 18.7069 25.4097 20.5781ZM9.42188 15.0469H7.91572V10.5469C7.91572 9.9007 8.46333 9.375 9.13643 9.375H12.2539V20.5781H10.1543V15.75C10.1543 15.3617 9.82637 15.0469 9.42188 15.0469ZM13.7188 16.4531H15.2812V20.5781H13.7188V16.4531ZM16.0137 15.0469H13.7188V9.375H18.2109V20.5781H16.7461V15.75C16.7461 15.3617 16.4182 15.0469 16.0137 15.0469ZM19.6758 13.6875H21.9037C22.012 14.1061 22.1059 14.5282 22.1854 14.9531H21.3848C20.9803 14.9531 20.6523 15.2679 20.6523 15.6562C20.6523 16.0446 20.9803 16.3594 21.3848 16.3594H22.3939C22.4487 16.8573 22.4838 17.3578 22.4988 17.8598C21.1169 18.1721 20.0342 19.237 19.7495 20.5781H19.6758V13.6875ZM21.482 12.2812H19.6758V8.44744C19.7958 8.67005 20.7289 10.0823 21.482 12.2812ZM7.61523 6.51562H18.2109V7.96875H9.13643C7.65562 7.96875 6.45088 9.1253 6.45088 10.5469V15.0469H3.46484V10.5C3.46484 8.30302 5.32671 6.51562 7.61523 6.51562ZM3.46484 20.5781V16.4531H8.68945V20.1993C7.3686 18.6733 4.87622 18.8611 3.82271 20.5781H3.46484ZM6.39453 23.4844C5.55732 23.4844 4.87617 22.8305 4.87617 22.0268C4.87617 21.2231 5.55732 20.5692 6.39453 20.5692C7.23174 20.5692 7.91289 21.2231 7.91289 22.0268C7.91289 22.8305 7.23174 23.4844 6.39453 23.4844ZM23.3379 23.4844C22.5007 23.4844 21.8195 22.8305 21.8195 22.0268C21.8195 22.0125 21.8182 21.9985 21.8173 21.9844H24.8584C24.8576 21.9985 24.8562 22.0125 24.8562 22.0268C24.8563 22.8305 24.1751 23.4844 23.3379 23.4844Z" fill="#4E4BC9"/>
</svg>
