<svg width="115" height="43" viewBox="0 0 115 43" fill="none" xmlns="http://www.w3.org/2000/svg">
<rect x="109" y="2" width="38" height="107" rx="4" transform="rotate(90 109 2)" fill="white"/>
<path d="M9 4C6.79086 4 5 5.79086 5 8L5 34C5 36.2091 6.79086 38 9 38L15 38L15 4L9 4Z" fill="#D5D5D5"/>
<path d="M-1.64498e-05 33.2583L-1.55722e-05 8.75275C-1.53993e-05 3.9244 4.32722 -4.41105e-06 9.63902 -4.12764e-06L101.481 -5.14927e-07C106.805 -2.30874e-07 111.132 3.92441 111.132 8.75276L111.132 33.2583C111.132 38.0866 106.805 42.011 101.481 42.011L9.65117 42.011C4.32722 42 -1.66223e-05 38.0756 -1.64498e-05 33.2583ZM108.653 8.75276C108.653 5.15906 105.432 2.2378 101.469 2.23779L9.63902 2.23779C5.67644 2.23779 2.45533 5.15905 2.45533 8.75275L2.45533 33.2583C2.45533 36.852 5.67644 39.7732 9.63901 39.7732L101.481 39.7732C105.444 39.7732 108.665 36.852 108.665 33.2583L108.665 8.75276L108.653 8.75276Z" fill="#484D4D"/>
<rect x="111" y="13" width="4" height="16" fill="#484D4D"/>
<rect x="92" y="4" width="34" height="8" transform="rotate(90 92 4)" fill="#F9B000"/>
<rect x="26" y="4" width="34" height="8" transform="rotate(90 26 4)" fill="#F9B000"/>
<path d="M36.463 17L38.047 17L38.047 8.981L35.396 8.981L35.396 10.4L36.463 10.4L36.463 17ZM39.5684 12.886C39.5684 15.229 40.2724 16.978 42.5384 16.978C44.8044 16.978 45.5084 15.229 45.5084 12.886C45.5084 10.565 44.8044 8.827 42.5384 8.827C40.2724 8.827 39.5684 10.565 39.5684 12.886ZM43.9904 12.886C43.9904 14.316 43.8364 15.548 42.5384 15.548C41.2404 15.548 41.0864 14.316 41.0864 12.886C41.0864 11.511 41.2404 10.257 42.5384 10.257C43.8364 10.257 43.9904 11.511 43.9904 12.886ZM46.8777 13.722L51.5417 13.722L51.5417 12.424L46.8777 12.424L46.8777 13.722ZM53.0048 16.89L58.4388 16.89L58.4388 15.614L55.1938 15.614C56.4698 14.536 58.2628 13.084 58.2628 11.225C58.2628 9.828 57.3938 8.805 55.6668 8.805C54.2258 8.805 53.0488 9.652 52.9938 11.489L54.4898 11.489C54.5008 10.642 54.9078 10.114 55.6448 10.114C56.4038 10.114 56.7228 10.598 56.7228 11.313C56.7228 12.787 54.8198 14.206 53.0048 15.746L53.0048 16.89ZM59.4092 12.886C59.4092 15.229 60.1132 16.978 62.3792 16.978C64.6452 16.978 65.3492 15.229 65.3492 12.886C65.3492 10.565 64.6452 8.827 62.3792 8.827C60.1132 8.827 59.4092 10.565 59.4092 12.886ZM63.8312 12.886C63.8312 14.316 63.6772 15.548 62.3792 15.548C61.0812 15.548 60.9272 14.316 60.9272 12.886C60.9272 11.511 61.0812 10.257 62.3792 10.257C63.6772 10.257 63.8312 11.511 63.8312 12.886ZM66.3445 10.95C66.3445 12.105 67.0925 12.743 68.0935 12.743C69.0945 12.743 69.8425 12.105 69.8425 10.95C69.8425 9.806 69.0945 9.168 68.0935 9.168C67.0925 9.168 66.3445 9.806 66.3445 10.95ZM68.0825 10.092C68.4675 10.092 68.7095 10.345 68.7095 10.95C68.7095 11.555 68.4675 11.819 68.0825 11.819C67.7085 11.819 67.4775 11.555 67.4775 10.95C67.4775 10.345 67.7085 10.092 68.0825 10.092ZM67.5875 17L69.0835 17L73.4065 9.3L71.8995 9.3L67.5875 17ZM71.1735 15.339C71.1735 16.505 71.9215 17.132 72.9225 17.132C73.9125 17.132 74.6495 16.505 74.6495 15.339C74.6495 14.184 73.9125 13.557 72.9225 13.557C71.9215 13.557 71.1735 14.184 71.1735 15.339ZM72.9115 14.481C73.2855 14.481 73.5275 14.734 73.5275 15.339C73.5275 15.955 73.2855 16.208 72.9115 16.208C72.5265 16.208 72.2845 15.955 72.2845 15.339C72.2845 14.734 72.5265 14.481 72.9115 14.481Z" fill="#F9B000"/>
<path d="M35.925 29.754C35.133 30.084 34.638 30.777 34.638 31.723C34.638 33.252 35.892 34.176 37.531 34.176C39.181 34.176 40.435 33.252 40.435 31.723C40.435 30.788 39.94 30.095 39.148 29.754C39.775 29.435 40.237 28.83 40.237 27.983C40.237 26.839 39.357 25.827 37.531 25.827C35.705 25.827 34.825 26.828 34.825 27.983C34.825 28.852 35.265 29.413 35.925 29.754ZM37.531 29.303C36.838 29.303 36.332 28.874 36.332 28.214C36.332 27.466 36.816 27.07 37.531 27.07C38.268 27.07 38.741 27.477 38.741 28.203C38.741 28.863 38.235 29.303 37.531 29.303ZM37.531 30.425C38.356 30.425 38.928 30.865 38.928 31.657C38.928 32.361 38.411 32.9 37.531 32.9C36.651 32.9 36.123 32.372 36.123 31.657C36.123 30.843 36.728 30.425 37.531 30.425ZM41.6514 29.886C41.6514 32.229 42.3554 33.978 44.6214 33.978C46.8874 33.978 47.5914 32.229 47.5914 29.886C47.5914 27.565 46.8874 25.827 44.6214 25.827C42.3554 25.827 41.6514 27.565 41.6514 29.886ZM46.0734 29.886C46.0734 31.316 45.9194 32.548 44.6214 32.548C43.3234 32.548 43.1694 31.316 43.1694 29.886C43.1694 28.511 43.3234 27.257 44.6214 27.257C45.9194 27.257 46.0734 28.511 46.0734 29.886ZM48.9607 30.722L53.6247 30.722L53.6247 29.424L48.9607 29.424L48.9607 30.722ZM55.5278 31.745C55.6158 32.922 56.4298 34.011 58.1348 34.011C60.2578 34.011 60.8628 32.537 60.8628 29.809C60.8628 27.268 60.1918 25.794 58.0138 25.794C56.3198 25.794 55.3078 26.85 55.3078 28.456C55.3078 30.15 56.4188 31.019 57.8048 31.019C58.5088 31.019 59.1578 30.744 59.4988 30.271C59.4988 32.075 59.1028 32.746 58.2008 32.746C57.4858 32.746 57.0788 32.383 56.9578 31.745L55.5278 31.745ZM58.1238 29.765C57.1888 29.765 56.7818 29.171 56.7818 28.445C56.7818 27.642 57.2658 27.103 58.0688 27.103C58.8498 27.103 59.3558 27.587 59.3558 28.467C59.3558 29.248 58.8938 29.765 58.1238 29.765ZM62.0615 29.886C62.0615 32.229 62.7655 33.978 65.0315 33.978C67.2975 33.978 68.0015 32.229 68.0015 29.886C68.0015 27.565 67.2975 25.827 65.0315 25.827C62.7655 25.827 62.0615 27.565 62.0615 29.886ZM66.4835 29.886C66.4835 31.316 66.3295 32.548 65.0315 32.548C63.7335 32.548 63.5795 31.316 63.5795 29.886C63.5795 28.511 63.7335 27.257 65.0315 27.257C66.3295 27.257 66.4835 28.511 66.4835 29.886ZM68.9968 27.95C68.9968 29.105 69.7448 29.743 70.7458 29.743C71.7468 29.743 72.4948 29.105 72.4948 27.95C72.4948 26.806 71.7468 26.168 70.7458 26.168C69.7448 26.168 68.9968 26.806 68.9968 27.95ZM70.7348 27.092C71.1198 27.092 71.3618 27.345 71.3618 27.95C71.3618 28.555 71.1198 28.819 70.7348 28.819C70.3608 28.819 70.1298 28.555 70.1298 27.95C70.1298 27.345 70.3608 27.092 70.7348 27.092ZM70.2398 34L71.7358 34L76.0588 26.3L74.5518 26.3L70.2398 34ZM73.8258 32.339C73.8258 33.505 74.5738 34.132 75.5748 34.132C76.5648 34.132 77.3018 33.505 77.3018 32.339C77.3018 31.184 76.5648 30.557 75.5748 30.557C74.5738 30.557 73.8258 31.184 73.8258 32.339ZM75.5638 31.481C75.9378 31.481 76.1798 31.734 76.1798 32.339C76.1798 32.955 75.9378 33.208 75.5638 33.208C75.1788 33.208 74.9368 32.955 74.9368 32.339C74.9368 31.734 75.1788 31.481 75.5638 31.481Z" fill="#F9B000"/>
<path d="M101 4C103.209 4 105 5.79086 105 8L105 34C105 36.2091 103.209 38 101 38L95 38L95 4L101 4Z" fill="#D5D5D5"/>
</svg>
