<svg width="115" height="43" viewBox="0 0 115 43" fill="none" xmlns="http://www.w3.org/2000/svg">
<rect x="109" y="2" width="38" height="107" rx="4" transform="rotate(90 109 2)" fill="white"/>
<path d="M9 4C6.79086 4 5 5.79086 5 8L5 34C5 36.2091 6.79086 38 9 38L15 38L15 4L9 4Z" fill="#D5D5D5"/>
<path d="M-1.64498e-05 33.2583L-1.55722e-05 8.75275C-1.53993e-05 3.9244 4.32722 -4.41105e-06 9.63902 -4.12764e-06L101.481 -5.14927e-07C106.805 -2.30874e-07 111.132 3.92441 111.132 8.75276L111.132 33.2583C111.132 38.0866 106.805 42.011 101.481 42.011L9.65117 42.011C4.32722 42 -1.66223e-05 38.0756 -1.64498e-05 33.2583ZM108.653 8.75276C108.653 5.15906 105.432 2.2378 101.469 2.23779L9.63902 2.23779C5.67644 2.23779 2.45533 5.15905 2.45533 8.75275L2.45533 33.2583C2.45533 36.852 5.67644 39.7732 9.63901 39.7732L101.481 39.7732C105.444 39.7732 108.665 36.852 108.665 33.2583L108.665 8.75276L108.653 8.75276Z" fill="#484D4D"/>
<rect x="111" y="13" width="4" height="16" fill="#484D4D"/>
<rect x="92" y="4" width="34" height="8" transform="rotate(90 92 4)" fill="#F9B000"/>
<rect x="26" y="4" width="34" height="8" transform="rotate(90 26 4)" fill="#F9B000"/>
<path d="M39.001 8.959L39.001 13.667L40.475 13.667C40.64 13.172 41.047 12.82 41.685 12.82C42.554 12.82 43.005 13.315 43.005 14.217C43.005 15.064 42.598 15.702 41.696 15.702C40.948 15.702 40.497 15.295 40.365 14.734L38.869 14.734C39.001 16.043 39.991 17 41.718 17C43.544 17 44.49 15.834 44.49 14.195C44.49 12.952 43.852 11.544 41.982 11.544C41.311 11.544 40.706 11.83 40.409 12.193L40.409 10.312L43.973 10.312L43.973 8.959L39.001 8.959ZM45.8601 13.722L50.5241 13.722L50.5241 12.424L45.8601 12.424L45.8601 13.722ZM52.9552 17L54.5392 17L54.5392 8.981L51.8882 8.981L51.8882 10.4L52.9552 10.4L52.9552 17ZM56.4785 8.959L56.4785 13.667L57.9525 13.667C58.1175 13.172 58.5245 12.82 59.1625 12.82C60.0315 12.82 60.4825 13.315 60.4825 14.217C60.4825 15.064 60.0755 15.702 59.1735 15.702C58.4255 15.702 57.9745 15.295 57.8425 14.734L56.3465 14.734C56.4785 16.043 57.4685 17 59.1955 17C61.0215 17 61.9675 15.834 61.9675 14.195C61.9675 12.952 61.3295 11.544 59.4595 11.544C58.7885 11.544 58.1835 11.83 57.8865 12.193L57.8865 10.312L61.4505 10.312L61.4505 8.959L56.4785 8.959ZM62.9636 10.95C62.9636 12.105 63.7116 12.743 64.7126 12.743C65.7136 12.743 66.4616 12.105 66.4616 10.95C66.4616 9.806 65.7136 9.168 64.7126 9.168C63.7116 9.168 62.9636 9.806 62.9636 10.95ZM64.7016 10.092C65.0866 10.092 65.3286 10.345 65.3286 10.95C65.3286 11.555 65.0866 11.819 64.7016 11.819C64.3276 11.819 64.0966 11.555 64.0966 10.95C64.0966 10.345 64.3276 10.092 64.7016 10.092ZM64.2066 17L65.7026 17L70.0256 9.3L68.5186 9.3L64.2066 17ZM67.7926 15.339C67.7926 16.505 68.5406 17.132 69.5416 17.132C70.5316 17.132 71.2686 16.505 71.2686 15.339C71.2686 14.184 70.5316 13.557 69.5416 13.557C68.5406 13.557 67.7926 14.184 67.7926 15.339ZM69.5306 14.481C69.9046 14.481 70.1466 14.734 70.1466 15.339C70.1466 15.955 69.9046 16.208 69.5306 16.208C69.1456 16.208 68.9036 15.955 68.9036 15.339C68.9036 14.734 69.1456 14.481 69.5306 14.481Z" fill="#F9B000"/>
<path d="M35.925 29.754C35.133 30.084 34.638 30.777 34.638 31.723C34.638 33.252 35.892 34.176 37.531 34.176C39.181 34.176 40.435 33.252 40.435 31.723C40.435 30.788 39.94 30.095 39.148 29.754C39.775 29.435 40.237 28.83 40.237 27.983C40.237 26.839 39.357 25.827 37.531 25.827C35.705 25.827 34.825 26.828 34.825 27.983C34.825 28.852 35.265 29.413 35.925 29.754ZM37.531 29.303C36.838 29.303 36.332 28.874 36.332 28.214C36.332 27.466 36.816 27.07 37.531 27.07C38.268 27.07 38.741 27.477 38.741 28.203C38.741 28.863 38.235 29.303 37.531 29.303ZM37.531 30.425C38.356 30.425 38.928 30.865 38.928 31.657C38.928 32.361 38.411 32.9 37.531 32.9C36.651 32.9 36.123 32.372 36.123 31.657C36.123 30.843 36.728 30.425 37.531 30.425ZM42.0694 25.959L42.0694 30.667L43.5434 30.667C43.7084 30.172 44.1154 29.82 44.7534 29.82C45.6224 29.82 46.0734 30.315 46.0734 31.217C46.0734 32.064 45.6664 32.702 44.7644 32.702C44.0164 32.702 43.5654 32.295 43.4334 31.734L41.9374 31.734C42.0694 33.043 43.0594 34 44.7864 34C46.6124 34 47.5584 32.834 47.5584 31.195C47.5584 29.952 46.9204 28.544 45.0504 28.544C44.3794 28.544 43.7744 28.83 43.4774 29.193L43.4774 27.312L47.0414 27.312L47.0414 25.959L42.0694 25.959ZM48.9285 30.722L53.5925 30.722L53.5925 29.424L48.9285 29.424L48.9285 30.722ZM55.4955 31.745C55.5835 32.922 56.3975 34.011 58.1025 34.011C60.2255 34.011 60.8305 32.537 60.8305 29.809C60.8305 27.268 60.1595 25.794 57.9815 25.794C56.2875 25.794 55.2755 26.85 55.2755 28.456C55.2755 30.15 56.3865 31.019 57.7725 31.019C58.4765 31.019 59.1255 30.744 59.4665 30.271C59.4665 32.075 59.0705 32.746 58.1685 32.746C57.4535 32.746 57.0465 32.383 56.9255 31.745L55.4955 31.745ZM58.0915 29.765C57.1565 29.765 56.7495 29.171 56.7495 28.445C56.7495 27.642 57.2335 27.103 58.0365 27.103C58.8175 27.103 59.3235 27.587 59.3235 28.467C59.3235 29.248 58.8615 29.765 58.0915 29.765ZM62.4473 25.959L62.4473 30.667L63.9213 30.667C64.0863 30.172 64.4933 29.82 65.1313 29.82C66.0003 29.82 66.4513 30.315 66.4513 31.217C66.4513 32.064 66.0443 32.702 65.1423 32.702C64.3943 32.702 63.9433 32.295 63.8113 31.734L62.3153 31.734C62.4473 33.043 63.4373 34 65.1643 34C66.9903 34 67.9363 32.834 67.9363 31.195C67.9363 29.952 67.2983 28.544 65.4283 28.544C64.7573 28.544 64.1523 28.83 63.8553 29.193L63.8553 27.312L67.4193 27.312L67.4193 25.959L62.4473 25.959ZM68.9324 27.95C68.9324 29.105 69.6804 29.743 70.6814 29.743C71.6824 29.743 72.4304 29.105 72.4304 27.95C72.4304 26.806 71.6824 26.168 70.6814 26.168C69.6804 26.168 68.9324 26.806 68.9324 27.95ZM70.6704 27.092C71.0554 27.092 71.2974 27.345 71.2974 27.95C71.2974 28.555 71.0554 28.819 70.6704 28.819C70.2964 28.819 70.0654 28.555 70.0654 27.95C70.0654 27.345 70.2964 27.092 70.6704 27.092ZM70.1754 34L71.6714 34L75.9944 26.3L74.4874 26.3L70.1754 34ZM73.7614 32.339C73.7614 33.505 74.5094 34.132 75.5104 34.132C76.5004 34.132 77.2374 33.505 77.2374 32.339C77.2374 31.184 76.5004 30.557 75.5104 30.557C74.5094 30.557 73.7614 31.184 73.7614 32.339ZM75.4994 31.481C75.8734 31.481 76.1154 31.734 76.1154 32.339C76.1154 32.955 75.8734 33.208 75.4994 33.208C75.1144 33.208 74.8724 32.955 74.8724 32.339C74.8724 31.734 75.1144 31.481 75.4994 31.481Z" fill="#F9B000"/>
<path d="M101 4C103.209 4 105 5.79086 105 8L105 34C105 36.2091 103.209 38 101 38L95 38L95 4L101 4Z" fill="#D5D5D5"/>
</svg>
